<svg viewBox="0 0 330 200" xmlns="http://www.w3.org/2000/svg"><g><g><g><g><g><line x1="41.171875" y1="177" x2="36.171875" y2="177" style="visibility: inherit;" fill="rgb(0, 0, 0)" stroke="rgb(204, 204, 204)" stroke-width="1px"></line><line x1="41.171875" y1="157.33333333333331" x2="36.171875" y2="157.33333333333331" style="visibility: inherit;" fill="rgb(0, 0, 0)" stroke="rgb(204, 204, 204)" stroke-width="1px"></line><line x1="41.171875" y1="137.66666666666666" x2="36.171875" y2="137.66666666666666" style="visibility: inherit;" fill="rgb(0, 0, 0)" stroke="rgb(204, 204, 204)" stroke-width="1px"></line><line x1="41.171875" y1="118.00000000000001" x2="36.171875" y2="118.00000000000001" style="visibility: inherit;" fill="rgb(0, 0, 0)" stroke="rgb(204, 204, 204)" stroke-width="1px"></line><line x1="41.171875" y1="98.33333333333334" x2="36.171875" y2="98.33333333333334" style="visibility: inherit;" fill="rgb(0, 0, 0)" stroke="rgb(204, 204, 204)" stroke-width="1px"></line><line x1="41.171875" y1="78.66666666666666" x2="36.171875" y2="78.66666666666666" style="visibility: inherit;" fill="rgb(0, 0, 0)" stroke="rgb(204, 204, 204)" stroke-width="1px"></line><line x1="41.171875" y1="59.00000000000001" x2="36.171875" y2="59.00000000000001" style="visibility: inherit;" fill="rgb(0, 0, 0)" stroke="rgb(204, 204, 204)" stroke-width="1px"></line><line x1="41.171875" y1="39.33333333333335" x2="36.171875" y2="39.33333333333335" style="visibility: inherit;" fill="rgb(0, 0, 0)" stroke="rgb(204, 204, 204)" stroke-width="1px"></line><line x1="41.171875" y1="19.666666666666657" x2="36.171875" y2="19.666666666666657" style="visibility: inherit;" fill="rgb(0, 0, 0)" stroke="rgb(204, 204, 204)" stroke-width="1px"></line><line x1="41.171875" y1="0" x2="36.171875" y2="0" style="visibility: inherit;" fill="rgb(0, 0, 0)" stroke="rgb(204, 204, 204)" stroke-width="1px"></line></g><g transform="translate(31.171875, 0)"><text x="0" y="177" dx="0em" dy="0.3em" style="text-anchor: end; visibility: hidden; font-family: Roboto, sans-serif; font-size: 12px; font-weight: 200;" fill="rgb(33, 33, 33)" stroke="none" stroke-width="1px">0</text><text x="0" y="157.33333333333331" dx="0em" dy="0.3em" style="text-anchor: end; visibility: inherit; font-family: Roboto, sans-serif; font-size: 12px; font-weight: 200;" fill="rgb(33, 33, 33)" stroke="none" stroke-width="1px">0.2</text><text x="0" y="137.66666666666666" dx="0em" dy="0.3em" style="text-anchor: end; visibility: hidden; font-family: Roboto, sans-serif; font-size: 12px; font-weight: 200;" fill="rgb(33, 33, 33)" stroke="none" stroke-width="1px">0.4</text><text x="0" y="118.00000000000001" dx="0em" dy="0.3em" style="text-anchor: end; visibility: inherit; font-family: Roboto, sans-serif; font-size: 12px; font-weight: 200;" fill="rgb(33, 33, 33)" stroke="none" stroke-width="1px">0.6</text><text x="0" y="98.33333333333334" dx="0em" dy="0.3em" style="text-anchor: end; visibility: hidden; font-family: Roboto, sans-serif; font-size: 12px; font-weight: 200;" fill="rgb(33, 33, 33)" stroke="none" stroke-width="1px">0.8</text><text x="0" y="78.66666666666666" dx="0em" dy="0.3em" style="text-anchor: end; visibility: inherit; font-family: Roboto, sans-serif; font-size: 12px; font-weight: 200;" fill="rgb(33, 33, 33)" stroke="none" stroke-width="1px">1</text><text x="0" y="59.00000000000001" dx="0em" dy="0.3em" style="text-anchor: end; visibility: hidden; font-family: Roboto, sans-serif; font-size: 12px; font-weight: 200;" fill="rgb(33, 33, 33)" stroke="none" stroke-width="1px">1.2</text><text x="0" y="39.33333333333335" dx="0em" dy="0.3em" style="text-anchor: end; visibility: inherit; font-family: Roboto, sans-serif; font-size: 12px; font-weight: 200;" fill="rgb(33, 33, 33)" stroke="none" stroke-width="1px">1.4</text><text x="0" y="19.666666666666657" dx="0em" dy="0.3em" style="text-anchor: end; visibility: hidden; font-family: Roboto, sans-serif; font-size: 12px; font-weight: 200;" fill="rgb(33, 33, 33)" stroke="none" stroke-width="1px">1.6</text><text x="0" y="0" dx="0em" dy="0.3em" style="text-anchor: end; visibility: hidden; font-family: Roboto, sans-serif; font-size: 12px; font-weight: 200;" fill="rgb(33, 33, 33)" stroke="none" stroke-width="1px">1.8</text></g><line x1="41.171875" y1="0" x2="41.171875" y2="177" fill="rgb(0, 0, 0)" stroke="rgb(204, 204, 204)" stroke-width="1px"></line></g></g><g transform="translate(41, 0)" clip-path="url(#clip_0)"><clipPath id="clip_0"><rect width="288" height="177"></rect></clipPath><g><g><g><line x1="0" y1="0" x2="0" y2="177" fill="rgb(0, 0, 0)" stroke="rgb(66, 66, 66)" stroke-width="1px" opacity="0.25"></line><line x1="24.069010416666664" y1="0" x2="24.069010416666664" y2="177" fill="rgb(0, 0, 0)" stroke="rgb(66, 66, 66)" stroke-width="1px" opacity="0.25"></line><line x1="48.13802083333333" y1="0" x2="48.13802083333333" y2="177" fill="rgb(0, 0, 0)" stroke="rgb(66, 66, 66)" stroke-width="1px" opacity="0.25"></line><line x1="72.20703125" y1="0" x2="72.20703125" y2="177" fill="rgb(0, 0, 0)" stroke="rgb(66, 66, 66)" stroke-width="1px" opacity="0.25"></line><line x1="96.27604166666666" y1="0" x2="96.27604166666666" y2="177" fill="rgb(0, 0, 0)" stroke="rgb(66, 66, 66)" stroke-width="1px" opacity="0.25"></line><line x1="120.34505208333334" y1="0" x2="120.34505208333334" y2="177" fill="rgb(0, 0, 0)" stroke="rgb(66, 66, 66)" stroke-width="1px" opacity="0.25"></line><line x1="144.4140625" y1="0" x2="144.4140625" y2="177" fill="rgb(0, 0, 0)" stroke="rgb(66, 66, 66)" stroke-width="1px" opacity="0.25"></line><line x1="168.48307291666669" y1="0" x2="168.48307291666669" y2="177" fill="rgb(0, 0, 0)" stroke="rgb(66, 66, 66)" stroke-width="1px" opacity="0.25"></line><line x1="192.55208333333331" y1="0" x2="192.55208333333331" y2="177" fill="rgb(0, 0, 0)" stroke="rgb(66, 66, 66)" stroke-width="1px" opacity="0.25"></line><line x1="216.62109375" y1="0" x2="216.62109375" y2="177" fill="rgb(0, 0, 0)" stroke="rgb(66, 66, 66)" stroke-width="1px" opacity="0.25"></line><line x1="240.69010416666669" y1="0" x2="240.69010416666669" y2="177" fill="rgb(0, 0, 0)" stroke="rgb(66, 66, 66)" stroke-width="1px" opacity="0.25"></line><line x1="264.7591145833333" y1="0" x2="264.7591145833333" y2="177" fill="rgb(0, 0, 0)" stroke="rgb(66, 66, 66)" stroke-width="1px" opacity="0.25"></line><line x1="288.828125" y1="0" x2="288.828125" y2="177" fill="rgb(0, 0, 0)" stroke="rgb(66, 66, 66)" stroke-width="1px" opacity="0.25"></line></g><g><line x1="0" y1="177" x2="288.828125" y2="177" fill="rgb(0, 0, 0)" stroke="rgb(66, 66, 66)" stroke-width="1px" opacity="0.25"></line><line x1="0" y1="157.33333333333331" x2="288.828125" y2="157.33333333333331" fill="rgb(0, 0, 0)" stroke="rgb(66, 66, 66)" stroke-width="1px" opacity="0.25"></line><line x1="0" y1="137.66666666666666" x2="288.828125" y2="137.66666666666666" fill="rgb(0, 0, 0)" stroke="rgb(66, 66, 66)" stroke-width="1px" opacity="0.25"></line><line x1="0" y1="118.00000000000001" x2="288.828125" y2="118.00000000000001" fill="rgb(0, 0, 0)" stroke="rgb(66, 66, 66)" stroke-width="1px" opacity="0.25"></line><line x1="0" y1="98.33333333333334" x2="288.828125" y2="98.33333333333334" fill="rgb(0, 0, 0)" stroke="rgb(66, 66, 66)" stroke-width="1px" opacity="0.25"></line><line x1="0" y1="78.66666666666666" x2="288.828125" y2="78.66666666666666" fill="rgb(0, 0, 0)" stroke="rgb(66, 66, 66)" stroke-width="1px" opacity="0.25"></line><line x1="0" y1="59.00000000000001" x2="288.828125" y2="59.00000000000001" fill="rgb(0, 0, 0)" stroke="rgb(66, 66, 66)" stroke-width="1px" opacity="0.25"></line><line x1="0" y1="39.33333333333335" x2="288.828125" y2="39.33333333333335" fill="rgb(0, 0, 0)" stroke="rgb(66, 66, 66)" stroke-width="1px" opacity="0.25"></line><line x1="0" y1="19.666666666666657" x2="288.828125" y2="19.666666666666657" fill="rgb(0, 0, 0)" stroke="rgb(66, 66, 66)" stroke-width="1px" opacity="0.25"></line><line x1="0" y1="0" x2="288.828125" y2="0" fill="rgb(0, 0, 0)" stroke="rgb(66, 66, 66)" stroke-width="1px" opacity="0.25"></line></g></g></g><g><g><line x1="0" y1="177" x2="288.828125" y2="177" fill="rgb(0, 0, 0)" stroke="rgb(153, 153, 153)" stroke-width="1.5px"></line></g></g><g><g><line x1="24.069010416666664" y1="0" x2="24.069010416666664" y2="177" fill="rgb(0, 0, 0)" stroke="rgb(153, 153, 153)" stroke-width="1.5px"></line></g></g><g><g><g><g><g><path stroke="rgb(238, 51, 119)" stroke-width="2px" d="M24.069010416666664,64.94506172339122L25.2724609375,80.0850302246168L26.475911458333332,87.34263039692696L27.679361979166668,92.38815675430112L28.8828125,96.36591315613158L30.086263020833336,100.01955666690831L31.289713541666668,102.93195557198794L32.4931640625,106.13365957986723L33.696614583333336,108.95361311857178L34.900065104166664,110.71034372745412L36.103515625,112.85218774478574L37.306966145833336,115.43878856889637L38.510416666666664,117.7523959460401L39.7138671875,120.45894523374339L40.917317708333336,123.03867980537662L42.12076822916667,125.40891474903603L43.32421875,127.60731273777593L44.527669270833336,129.51994530117403L45.731119791666664,130.0518445685653L46.9345703125,131.01606765808688L48.13802083333333,132.30177211455836L49.341471354166664,132.68343991624664L50.544921875,134.13276797191264L51.748372395833336,134.9699854174051L52.951822916666664,135.9589250827288L54.1552734375,136.83843038741324L55.358723958333336,138.01293877191958L56.562174479166664,138.2260807734466L57.765625,138.94790118333108L58.969075520833336,139.2867247413895L60.17252604166667,139.98420258853125L61.3759765625,139.36400723009217L62.579427083333336,139.92758491883066L63.782877604166664,140.64840584612676L64.986328125,141.0621226102463L66.18977864583333,141.50280592379988L67.39322916666667,141.69699589575697L68.5966796875,142.3121080460262L69.80013020833333,141.06818763234804L71.00358072916666,141.7443787641096L72.20703125,142.4699243263566L73.41048177083333,142.74730419046517L74.61393229166667,143.2382703618788L75.8173828125,142.9752353443534L77.02083333333333,143.09613150950005L78.22428385416666,143.58178655353828L79.427734375,143.34266890758687L80.63118489583333,143.8885175742288L81.83463541666667,143.87344814292965L83.0380859375,144.29835683093356L84.24153645833334,144.60847745127703L85.44498697916667,144.3615036648579L86.6484375,143.95305605566082L87.85188802083333,143.81655839013422L89.05533854166667,144.40257287203025L90.2587890625,144.41841286959567L91.46223958333333,144.91167340273273L92.66569010416667,145.078069387977L93.869140625,144.83000779116784L95.07259114583333,145.13879992949506L96.27604166666666,145.16391240224326L97.4794921875,143.5763717402236L98.68294270833333,143.17700989933454L99.88639322916667,143.64687141532139L101.08984375,143.9194956420494L102.29329427083334,144.3445068574131L103.49674479166667,145.0705168190805L104.7001953125,145.258492809199L105.90364583333333,145.03613612565607L107.10709635416667,145.58970339632856L108.310546875,146.01582609844587L109.51399739583333,146.44173576753468L110.71744791666667,146.69141001297743L111.9208984375,147.08440890041882L113.12434895833333,147.45487245573347L114.32779947916666,147.4840433237505L115.53125,147.73017990857235L116.73470052083333,147.44847045617496L117.93815104166667,147.77649028245742L119.1416015625,146.87488907726706L120.34505208333334,147.37094550941225L121.54850260416667,147.27524390299644L122.751953125,146.9215956419234L123.95540364583333,147.09338685213066L125.15885416666667,147.5326633999419L126.3623046875,147.8564388439605L127.56575520833333,148.0480429017697L128.76920572916669,148.38088883062736L129.97265625,148.49796664170069L131.17610677083334,148.4662540614631L132.37955729166666,148.31246715905775L133.5830078125,148.1505379524676L134.78645833333334,148.32925343485056L135.98990885416666,148.63663406005077L137.193359375,148.7197238266978L138.39680989583334,148.81075729763384L139.60026041666666,148.2580533615948L140.8037109375,148.02253338332602L142.00716145833331,148.48644229299282L143.21061197916666,147.9314550587213L144.4140625,146.7260024060455L145.61751302083334,147.2215319780193L146.82096354166666,147.3059746958332L148.0244140625,147.3275000065365L149.22786458333334,147.61599965101655L150.43131510416669,147.76777016522777L151.634765625,147.73204134556707L152.83821614583334,147.93887384279657L154.04166666666666,147.97310197863735L155.2451171875,147.92386932602716L156.44856770833331,147.73583691199332L157.65201822916666,146.92088050859553L158.85546875,147.33759797787488L160.05891927083334,146.77583729331928L161.26236979166666,146.81134912770446L162.4658203125,147.03060657265112L163.66927083333334,146.681108752998L164.87272135416666,147.33842835020343L166.076171875,147.76583341266715L167.27962239583334,147.93664046276018L168.48307291666669,147.6164817094307L169.6865234375,147.89602467009593L170.88997395833334,148.4117819809746L172.09342447916666,148.7963325586829L173.296875,149.04390262545346L174.50032552083331,148.95297533480567L175.70377604166666,149.12773133249277L176.9072265625,148.85204189255575L178.11067708333334,148.79810334688648L179.31412760416666,148.99143536037022L180.517578125,148.92523700419156L181.72102864583334,149.09129606898097L182.92447916666666,149.33300660329274L184.1279296875,149.46439087560276L185.33138020833334,149.83285842434915L186.53483072916669,149.13496311733866L187.73828125,149.0922100148844L188.94173177083334,148.92197558072044L190.14518229166666,148.40078121593731L191.3486328125,148.98387064163413L192.55208333333331,149.32173539997527L193.75553385416666,149.74315123689578L194.958984375,149.60605339865737L196.16243489583334,149.28844567584963L197.36588541666666,149.2587276513321L198.5693359375,149.57318789710126L199.77278645833334,149.9362547373689L200.97623697916666,149.92987020825126L202.1796875,150.28702226021036L203.38313802083334,148.77089785050632L204.58658854166669,149.2709022065519L205.7900390625,149.73298561034267L206.99348958333334,149.86211259601737L208.19694010416666,150.06443591334187L209.400390625,149.8146769927295L210.60384114583331,149.7277345323602L211.80729166666666,149.96747212113843L213.0107421875,150.13054219817909L214.21419270833334,150.2940483192348L215.41764322916666,150.42387478043548L216.62109375,150.72434206990002L217.82454427083334,150.79666821296883L219.02799479166666,150.7485403518651L220.2314453125,150.70379368474659L221.43489583333334,150.61157817770027L222.63834635416669,150.81437109853775L223.841796875,150.69396076955317L225.04524739583334,150.3323161496408L226.24869791666666,149.974886685512L227.4521484375,149.93315179625753L228.65559895833331,150.0981589572891L229.85904947916666,150.34650400431076L231.0625,150.68264126832074L232.26595052083334,150.86887248618098L233.46940104166666,150.975981779057L234.6728515625,151.36383265326324L235.87630208333334,151.36366876756705L237.07975260416666,151.35043850538943L238.283203125,151.3423398741696L239.48665364583334,151.63350652080177L240.69010416666669,151.91256915405432L241.8935546875,151.67413634925612L243.09700520833334,151.92669321736537L244.30045572916666,151.70288010229663L245.50390625,151.9010410311329L246.70735677083331,152.113341874772L247.91080729166666,151.8844284343654L249.1142578125,152.039477278769L250.31770833333334,151.649853772663L251.52115885416666,151.55901641474662L252.724609375,151.64522985696965L253.92805989583334,151.89031445885013L255.13151041666666,151.89654877764457L256.3349609375,152.09400041523642L257.53841145833337,152.2447260966187L258.7418619791667,152.37411006170942L259.9453125,152.37744003812892L261.1487630208333,152.26894478733263L262.3522135416667,151.66359409870856L263.5556640625,151.8923887285709" style="fill: none;" fill="none"></path></g><g><path stroke="rgb(51, 187, 238)" stroke-width="2px" d="M24.069010416666664,7.3041718403498415L25.2724609375,46.188788665379434L26.475911458333332,64.70739461046554L27.679361979166668,75.5255339020333L28.8828125,82.80511480535478L30.086263020833336,88.30300152470114L31.289713541666668,93.04892845199447L32.4931640625,97.48920733712242L33.696614583333336,101.04218918898918L34.900065104166664,104.0433516415067L36.103515625,106.48359567479419L37.306966145833336,108.91309826208338L38.510416666666664,111.42013324512489L39.7138671875,114.14445599709643L40.917317708333336,116.38215192435275L42.12076822916667,118.48325970060246L43.32421875,121.03632619509841L44.527669270833336,122.32771676597409L45.731119791666664,124.26529111991593L46.9345703125,125.6520116245694L48.13802083333333,127.51047245651753L49.341471354166664,128.89092745945516L50.544921875,129.92463786492115L51.748372395833336,131.24941584872013L52.951822916666664,132.43825396316203L54.1552734375,133.03406260592948L55.358723958333336,134.13221990947244L56.562174479166664,135.00511771177324L57.765625,135.83178431497635L58.969075520833336,136.50160065771274L60.17252604166667,137.12207814907134L61.3759765625,137.77970731744506L62.579427083333336,138.37817736314526L63.782877604166664,138.7329769629132L64.986328125,139.00873089583095L66.18977864583333,139.33702542997725L67.39322916666667,139.69263617641246L68.5966796875,140.33702079610333L69.80013020833333,140.42640246499877L71.00358072916666,140.8271387149357L72.20703125,141.30850447845327L73.41048177083333,141.48916838005786L74.61393229166667,141.69367579475676L75.8173828125,141.96666275819652L77.02083333333333,142.27257428754376L78.22428385416666,142.55767131673983L79.427734375,142.89275341085866L80.63118489583333,143.10366783445136L81.83463541666667,143.19862073434487L83.0380859375,143.24966599968744L84.24153645833334,143.060469840311L85.44498697916667,143.19661986318053L86.6484375,143.4240115198581L87.85188802083333,143.6654564641111L89.05533854166667,143.91227080712764L90.2587890625,144.16644835979437L91.46223958333333,144.4073324073278L92.66569010416667,144.63657549192456L93.869140625,144.67229075025608L95.07259114583333,144.6576763813491L96.27604166666666,144.54059350077196L97.4794921875,144.6173590114494L98.68294270833333,144.71542420981325L99.88639322916667,144.94078326351726L101.08984375,145.16598993380944L102.29329427083334,145.28639863303889L103.49674479166667,145.33924901263921L104.7001953125,145.51874560421686L105.90364583333333,145.39766815091463L107.10709635416667,145.5180971155528L108.310546875,145.70434661636685L109.51399739583333,145.77853053266176L110.71744791666667,145.88968742638545L111.9208984375,146.13064445922788L113.12434895833333,146.34427515635267L114.32779947916666,146.48183347286653L115.53125,146.50202298468415L116.73470052083333,146.6738746257127L117.93815104166667,146.69758400755617L119.1416015625,146.9355100818054L120.34505208333334,147.08898915759835L121.54850260416667,146.9050361662806L122.751953125,146.99719294880612L123.95540364583333,147.12201483297684L125.15885416666667,147.36514255701638L126.3623046875,146.90299542270802L127.56575520833333,146.90683664060208L128.76920572916669,147.20400254231353L129.97265625,147.34232615913015L131.17610677083334,147.50730016547672L132.37955729166666,147.68953056577928L133.5830078125,147.66645336251068L134.78645833333334,147.7387396218415L135.98990885416666,147.7578252311897L137.193359375,147.870276875L138.39680989583334,147.85945784964375L139.60026041666666,147.92228189946982L140.8037109375,148.13939449795748L142.00716145833331,148.36831882249732L143.21061197916666,148.40884021530908L144.4140625,148.4740659692588L145.61751302083334,148.46616292449878L146.82096354166666,148.56318131544535L148.0244140625,148.42549790837762L149.22786458333334,148.50329767106462L150.43131510416669,148.66535694638944L151.634765625,148.7582466033073L152.83821614583334,148.8566029591361L154.04166666666666,148.87446451146425L155.2451171875,148.88797628708105L156.44856770833331,148.65590029618193L157.65201822916666,148.65963855347343L158.85546875,148.64758945717716L160.05891927083334,148.67339854909102L161.26236979166666,148.77696167532088L162.4658203125,148.65020306892507L163.66927083333334,148.69502708317822L164.87272135416666,148.83443684602375L166.076171875,149.02432243784472L167.27962239583334,148.9284578063122L168.48307291666669,149.0326761765421L169.6865234375,149.07207003043987L170.88997395833334,148.79370382016475L172.09342447916666,148.9546966812342L173.296875,149.09458074163342L174.50032552083331,149.11726333497577L175.70377604166666,149.244373006415L176.9072265625,149.2790099456926L178.11067708333334,149.2963035047553L179.31412760416666,149.35833555836217L180.517578125,149.3357511385374L181.72102864583334,149.36005328042188L182.92447916666666,149.47562002640814L184.1279296875,149.54097897591907L185.33138020833334,149.54417129022883L186.53483072916669,149.62766947301026L187.73828125,149.41131004087626L188.94173177083334,149.31094797634947L190.14518229166666,149.39615162092937L191.3486328125,149.4223983396784L192.55208333333331,149.63523265975655L193.75553385416666,149.67297912041613L194.958984375,149.79368932066762L196.16243489583334,149.97609094418533L197.36588541666666,149.9949263876603L198.5693359375,150.0571175557745L199.77278645833334,150.02493552077632L200.97623697916666,150.13712106001864L202.1796875,150.23479498611633L203.38313802083334,150.1616525123401L204.58658854166669,150.06979771195967L205.7900390625,150.0568483186731L206.99348958333334,150.24035500680327L208.19694010416666,150.29654345598004L209.400390625,150.37483518652874L210.60384114583331,150.54509157240142L211.80729166666666,150.4915338782402L213.0107421875,150.59055285706208L214.21419270833334,150.71469464288344L215.41764322916666,150.64222535710513L216.62109375,150.6104448544607L217.82454427083334,150.54933404577707L219.02799479166666,150.5557630081207L220.2314453125,150.54129182231264L221.43489583333334,150.68602696345224L222.63834635416669,150.61959350565704L223.841796875,150.60831279710533L225.04524739583334,150.68535604537118L226.24869791666666,150.71490028524823L227.4521484375,150.58969409569892L228.65559895833331,150.7044080576072L229.85904947916666,150.73097776051523L231.0625,150.68561473361734L232.26595052083334,150.83783050353358L233.46940104166666,150.88913112416594L234.6728515625,150.9090768637219L235.87630208333334,151.01296576211348L237.07975260416666,150.9856260166344L238.283203125,150.96739193381882L239.48665364583334,151.00343658498804L240.69010416666669,151.15778764724777L241.8935546875,151.3464204259845L243.09700520833334,151.2504382527956L244.30045572916666,151.296082357796L245.50390625,151.31279964248105L246.70735677083331,151.22471447054343L247.91080729166666,151.2584046304301L249.1142578125,151.35805360677088L250.31770833333334,151.54707237474435L251.52115885416666,151.58171296296766L252.724609375,151.4878125618683L253.92805989583334,151.4760613933236L255.13151041666666,151.46087811682284L256.3349609375,151.54701517162917L257.53841145833337,151.6573836102659L258.7418619791667,151.54028456920162L259.9453125,151.37454776531195L261.1487630208333,151.5407041947445L262.3522135416667,151.6172472187302L263.5556640625,151.67676448810647" style="fill: none;" fill="none"></path></g></g></g></g><g opacity="0.2"><g><g><g><path stroke="rgb(238, 51, 119)" stroke-width="2px" d="M24.069010416666664,64.94506172339122L25.2724609375,92.984283387661L26.475911458333332,98.79442673921585L27.679361979166668,103.47002071142197L28.8828125,107.19858022530875L30.086263020833336,111.60986683766048L31.289713541666668,113.28485282262166L32.4931640625,118.5583868821462L33.696614583333336,120.67989083131154L34.900065104166664,118.43098364273708L36.103515625,122.69706092278163L37.306966145833336,127.77214906613032L38.510416666666664,129.1225812037786L39.7138671875,134.09762583176294L40.917317708333336,136.3123099207878L42.12076822916667,137.819075802962L43.32421875,139.28725204865137L44.527669270833336,139.80726556976637L45.731119791666664,132.94249511758485L46.9345703125,136.3021936217944L48.13802083333333,139.4025755127271L49.341471354166664,134.80455936988196L50.544921875,142.23015141487122L51.748372395833336,139.66854743162793L52.951822916666664,141.53013986349106L54.1552734375,141.80918501814207L55.358723958333336,144.66923154393834L56.562174479166664,139.43684257070225L57.765625,143.056373467048L58.969075520833336,141.21850393215817L60.17252604166667,143.96653559803963L61.3759765625,135.8186011215051L62.579427083333336,143.15268051624298L63.782877604166664,144.77698243657747L64.986328125,143.43351331353188L66.18977864583333,144.03038667639098L67.39322916666667,142.81139902273816L68.5966796875,145.84370982646942L69.80013020833333,133.9235211610794L71.00358072916666,145.62950628002486L72.20703125,146.63982035716373L73.41048177083333,144.34186728795368L74.61393229166667,146.06125714381534L75.8173828125,141.46255231897038L77.02083333333333,143.79149607817334L78.22428385416666,146.3755129973094L79.427734375,141.96699576576552L80.63118489583333,147.02914547920227L81.83463541666667,143.78673684597015L83.0380859375,146.7434977690379L84.24153645833334,146.39317256212234L85.44498697916667,142.9401385982831L86.6484375,141.6022902925809L87.85188802083333,143.03093619147936L89.05533854166667,147.77552437782288L90.2587890625,144.50958626468974L91.46223958333333,147.75089300672215L92.66569010416667,146.03586675723395L93.869140625,143.40210941433907L95.07259114583333,146.916301270326L96.27604166666666,145.30846910675368L97.4794921875,134.43780836462975L98.68294270833333,140.87809281547865L99.88639322916667,146.3516377111276L101.08984375,145.48887155453363L102.29329427083334,146.79111939668655L103.49674479166667,149.24987238645554L104.7001953125,146.3406012157599L105.90364583333333,143.75610661506653L107.10709635416667,148.7764049768448L108.310546875,148.4688776930173L109.51399739583333,148.89356590310734L110.71744791666667,148.12870981295904L111.9208984375,149.34678899248442L113.12434895833333,149.58752584457397L114.32779947916666,147.65197189648947L115.53125,149.14712103207907L116.73470052083333,145.82674480477968L117.93815104166667,149.6648135483265L119.1416015625,141.68460684021312L120.34505208333334,150.22661394874257L121.54850260416667,146.72431431214014L122.751953125,144.88573265075684L123.95540364583333,148.0823453962803L125.15885416666667,150.06146800518036L126.3623046875,149.7203330397606L127.56575520833333,149.15105970700583L128.76920572916669,150.29700017968813L129.97265625,149.17195461193722L131.17610677083334,148.28369256854057L132.37955729166666,147.4271538555622L133.5830078125,147.21835133433342L134.78645833333334,149.3580745855967L135.98990885416666,150.4061489502589L137.193359375,149.1980512638887L138.39680989583334,149.33481471737227L139.60026041666666,145.07627191146216L140.8037109375,146.6667023996512L142.00716145833331,151.15705263614655L143.21061197916666,144.73652896285057L144.4140625,139.78650547067323L145.61751302083334,150.07417492071787L146.82096354166666,147.79209084312123L148.0244140625,147.45141597588858L149.22786458333334,149.27682183186215L150.43131510416669,148.6414760549863L151.634765625,147.52635923027992L152.83821614583334,149.12955817580223L154.04166666666666,148.17014502485594L155.2451171875,147.64044892787933L156.44856770833331,146.6533800661564L157.65201822916666,142.22937481602034L158.85546875,149.73653904596966L160.05891927083334,143.54191772143045L161.26236979166666,147.01578211784363L162.4658203125,148.2928183376789L163.66927083333334,144.66913483540216L164.87272135416666,151.12245735526085L166.076171875,150.22630037864047L167.27962239583334,148.91993509729704L168.48307291666669,145.77340565125147L169.6865234375,149.50528549154598L170.88997395833334,151.3808713555336L172.09342447916666,151.0100966890653L173.296875,150.46910327672958L174.50032552083331,148.42952904105186L175.70377604166666,150.1337591012319L176.9072265625,147.2649648487568L178.11067708333334,148.48759226004282L179.31412760416666,150.1044007341067L180.517578125,148.54414917031926L181.72102864583334,150.04725771149L182.92447916666666,150.72447535395622L184.1279296875,150.22073817253113L185.33138020833334,151.9540364742279L186.53483072916669,145.11734959483147L187.73828125,148.84609080354375L188.94173177083334,147.94197735190392L190.14518229166666,145.40039203564325L191.3486328125,152.34057463208836L192.55208333333331,151.2667406300704L193.75553385416666,152.1691397031148L194.958984375,148.8168144921462L196.16243489583334,147.46005527178448L197.36588541666666,149.0876482129097L198.5693359375,151.38345904151598L199.77278645833334,152.02634222308797L200.97623697916666,149.89311602711678L202.1796875,152.34305974841118L203.38313802083334,140.0429384112358L204.58658854166669,152.14930566151935L205.7900390625,152.39308736721676L206.99348958333334,150.60546524326008L208.19694010416666,151.2291620373726L209.400390625,148.3768756389618L210.60384114583331,149.22722793618837L211.80729166666666,151.34758310516673L213.0107421875,151.06929696599644L214.21419270833334,151.23531328638396L215.41764322916666,151.1712541381518L216.62109375,152.4540591686964L217.82454427083334,151.21303222576776L219.02799479166666,150.47147996226948L220.2314453125,150.446198006471L221.43489583333334,150.08071593443552L222.63834635416669,151.9818006157875L223.841796875,150.00078779459L225.04524739583334,148.25041604042053L226.24869791666666,147.91725220282873L227.4521484375,149.69289419054985L228.65559895833331,151.0480650464694L229.85904947916666,151.77616603175798L231.0625,152.61770173410574L232.26595052083334,151.94096030791601L233.46940104166666,151.59258392453194L234.6728515625,153.59659579396248L235.87630208333334,151.36272531747818L237.07975260416666,151.2742751042048L238.283203125,151.29571802417436L239.48665364583334,153.30968208114305L240.69010416666669,153.51906485358876L241.8935546875,150.30153668920198L243.09700520833334,153.3806016743183L244.30045572916666,150.41444243987402L245.50390625,153.0418052971363L246.70735677083331,153.3355061908563L247.91080729166666,150.56662943959236L249.1142578125,152.93205576141676L250.31770833333334,149.40688602129617L251.52115885416666,151.03608784079552L252.724609375,152.1415396730105L253.92805989583334,153.30120689670247L255.13151041666666,151.93243823448816L256.3349609375,153.23068146407604L257.53841145833337,153.1124171813329L258.7418619791667,153.11894207696122L259.9453125,152.3966099023819L261.1487630208333,151.64436401923498L262.3522135416667,148.1787374317646L263.5556640625,153.20950375994045" style="fill: none;" fill="none"></path></g><g><path stroke="rgb(51, 187, 238)" stroke-width="2px" d="M24.069010416666664,7.3041718403498415L25.2724609375,79.31848220030467L26.475911458333332,93.92797700564067L27.679361979166668,99.2862160205841L28.8828125,102.62967628240585L30.086263020833336,105.74373217423758L31.289713541666668,109.91958918174109L32.4931640625,114.72042363882065L33.696614583333336,115.81663540999095L34.900065104166664,117.23313413063686L36.103515625,117.70004880428313L37.306966145833336,120.49738717079161L38.510416666666664,123.7409152785937L39.7138671875,127.872699568669L40.917317708333336,127.89587445060413L42.12076822916667,129.4843150873979L43.32421875,134.60059520602226L44.527669270833336,129.27361356218654L45.731119791666664,134.7951991558075L46.9345703125,133.25438014666238L48.13802083333333,137.77454591790834L49.341471354166664,136.5628084739049L50.544921875,135.69996905326843L51.748372395833336,138.68422450621924L52.951822916666664,139.1356013417244L54.1552734375,136.4014312326908L55.358723958333336,140.35580810904503L56.562174479166664,139.9636491338412L57.765625,140.5370223224163L58.969075520833336,140.3205124239127L60.17252604166667,140.6647684375445L61.3759765625,141.53910738229752L62.579427083333336,141.80294585227966L63.782877604166664,140.7651284535726L64.986328125,140.5893299182256L66.18977864583333,141.21998972694078L67.39322916666667,141.73338897029558L68.5966796875,144.0366873840491L69.80013020833333,140.9397811392943L71.00358072916666,143.1296111345291L72.20703125,144.07503671447435L73.41048177083333,142.52774409453073L74.61393229166667,142.86956481138864L75.8173828125,143.5365782380104L77.02083333333333,144.03210105498633L78.22428385416666,144.19768951336542L79.427734375,144.820521791776L80.63118489583333,144.31719781955084L81.83463541666667,143.7449909945329L83.0380859375,143.5434064467748L84.24153645833334,141.97167587280273L85.44498697916667,143.9801802933216L86.6484375,144.73273388544717L87.85188802083333,145.05511032541594L89.05533854166667,145.3328718940417L90.2587890625,145.62946818272275L91.46223958333333,145.79386683305103L92.66569010416667,145.956129103899L93.869140625,144.87787581483522L95.07259114583333,144.57355163494745L96.27604166666666,143.86662102739015L97.4794921875,145.0592541396618L98.68294270833333,145.27993422746658L99.88639322916667,146.23806672294936L101.08984375,146.46240415175757L102.29329427083334,145.97954136133194L103.49674479166667,145.6434879899025L104.7001953125,146.55204124252003L105.90364583333333,144.70066767930984L107.10709635416667,146.21136637528738L108.310546875,146.7765251994133L109.51399739583333,146.2055843770504L110.71744791666667,146.52958434820175L111.9208984375,147.51776389280957L113.12434895833333,147.57408635814986L114.32779947916666,147.27371843655902L115.53125,146.61824849247932L116.73470052083333,147.66317836443582L117.93815104166667,146.8340726395448L119.1416015625,148.30518823862076L120.34505208333334,147.9725284576416L121.54850260416667,145.8460659980774L122.751953125,147.5277160803477L123.95540364583333,147.84058284759521L125.15885416666667,148.7647677163283L126.3623046875,144.24253003795943L127.56575520833333,146.92894957462946L128.76920572916669,148.91471283634505L129.97265625,148.13862097263336L131.17610677083334,148.45701477924982L132.37955729166666,148.7385860780875L133.5830078125,147.53360357880592L134.78645833333334,148.15487386782965L135.98990885416666,147.8676964044571L137.193359375,148.51763344804445L138.39680989583334,147.79717536767325L139.60026041666666,148.2839445968469L140.8037109375,149.38925869266194L142.00716145833331,149.6861802736918L143.21061197916666,148.64211198687553L144.4140625,148.84955472747484L145.61751302083334,148.42066702246666L146.82096354166666,149.1216925481955L148.0244140625,147.63288807868958L149.22786458333334,148.95117195447284L150.43131510416669,149.59829272826514L151.634765625,149.2929897407691L152.83821614583334,149.4228165547053L154.04166666666666,148.97728912035623L155.2451171875,148.9657602906227L156.44856770833331,147.3198952972889L157.65201822916666,148.68115879098573L158.85546875,148.5782257417838L160.05891927083334,148.82197521130243L161.26236979166666,149.373149394989L162.4658203125,147.92048461238545L163.66927083333334,148.95306802789372L164.87272135416666,149.63698493440947L166.076171875,150.1174475948016L167.27962239583334,148.37658844391507L168.48307291666669,149.6326359808445L169.6865234375,149.29885086417198L170.88997395833334,147.1912172635396L172.09342447916666,149.8814934194088L173.296875,149.89985924959183L174.50032552083331,149.24784150719643L175.70377604166666,149.97611246506372L176.9072265625,149.47840637962025L178.11067708333334,149.3958583176136L179.31412760416666,149.71543900171918L180.517578125,149.2057381272316L181.72102864583334,149.49995479981106L182.92447916666666,150.14090967178345L184.1279296875,149.91723454991978L185.33138020833334,149.56254866719246L186.53483072916669,150.10834820071858L187.73828125,148.16578141848245L188.94173177083334,148.7331879834334L190.14518229166666,149.88664827744165L191.3486328125,149.5734943151474L192.55208333333331,150.8604680697123L193.75553385416666,149.89027631282806L194.958984375,150.48858858148256L196.16243489583334,151.02613272269568L197.36588541666666,150.103357454141L198.5693359375,150.41513698299727L199.77278645833334,149.8396713733673L200.97623697916666,150.78294592102367L202.1796875,150.79708002010983L203.38313802083334,149.74058908224106L204.58658854166669,149.54101196924844L205.7900390625,149.98230181137723L206.99348958333334,151.29675837357837L208.19694010416666,150.62000669042268L209.400390625,150.82554163535434L210.60384114583331,151.52521617213887L211.80729166666666,150.18321526050568L213.0107421875,151.16058103243512L214.21419270833334,151.4293487071991L215.41764322916666,150.22503730654716L216.62109375,150.4274922311306L217.82454427083334,150.197533984979L219.02799479166666,150.59277298053107L220.2314453125,150.45798472563425L221.43489583333334,151.51923196514446L222.63834635416669,150.237152248621L223.841796875,150.5433725019296L225.04524739583334,151.12887528538704L226.24869791666666,150.8849792877833L227.4521484375,149.86891251802444L228.65559895833331,151.36478843291601L229.85904947916666,150.8839330772559L231.0625,150.4244708220164L232.26595052083334,151.71409966548285L233.46940104166666,151.18445631861687L234.6728515625,151.02389963467917L235.87630208333334,151.6110288798809L237.07975260416666,150.8282377521197L238.283203125,150.8624227543672L239.48665364583334,151.21093687415123L240.69010416666669,152.0463491678238L241.8935546875,152.43233344952267L243.09700520833334,150.6978922287623L244.30045572916666,151.55884436766308L245.50390625,151.40903698404628L246.70735677083331,150.7176295618216L247.91080729166666,151.45235068599382L249.1142578125,151.93170852462453L250.31770833333334,152.6352074444294L251.52115885416666,151.78113040328026L252.724609375,150.94725079337755L253.92805989583334,151.4084127744039L255.13151041666666,151.3734716872374L256.3349609375,152.04288524389267L257.53841145833337,152.29274786512056L258.7418619791667,150.86617387334505L259.9453125,150.4204412996769L261.1487630208333,152.49722634255886L262.3522135416667,152.05788678924245L263.5556640625,152.0193909307321" style="fill: none;" fill="none"></path></g></g></g></g></g></g><g transform="translate(41, 177)" clip-path="url(#clip_1)"><clipPath id="clip_1"><rect width="288" height="23"></rect></clipPath><g><g><line x1="0" y1="0" x2="0" y2="5" style="visibility: inherit;" fill="rgb(0, 0, 0)" stroke="rgb(204, 204, 204)" stroke-width="1px"></line><line x1="24.069010416666664" y1="0" x2="24.069010416666664" y2="5" style="visibility: inherit;" fill="rgb(0, 0, 0)" stroke="rgb(204, 204, 204)" stroke-width="1px"></line><line x1="48.13802083333333" y1="0" x2="48.13802083333333" y2="5" style="visibility: inherit;" fill="rgb(0, 0, 0)" stroke="rgb(204, 204, 204)" stroke-width="1px"></line><line x1="72.20703125" y1="0" x2="72.20703125" y2="5" style="visibility: inherit;" fill="rgb(0, 0, 0)" stroke="rgb(204, 204, 204)" stroke-width="1px"></line><line x1="96.27604166666666" y1="0" x2="96.27604166666666" y2="5" style="visibility: inherit;" fill="rgb(0, 0, 0)" stroke="rgb(204, 204, 204)" stroke-width="1px"></line><line x1="120.34505208333334" y1="0" x2="120.34505208333334" y2="5" style="visibility: inherit;" fill="rgb(0, 0, 0)" stroke="rgb(204, 204, 204)" stroke-width="1px"></line><line x1="144.4140625" y1="0" x2="144.4140625" y2="5" style="visibility: inherit;" fill="rgb(0, 0, 0)" stroke="rgb(204, 204, 204)" stroke-width="1px"></line><line x1="168.48307291666669" y1="0" x2="168.48307291666669" y2="5" style="visibility: inherit;" fill="rgb(0, 0, 0)" stroke="rgb(204, 204, 204)" stroke-width="1px"></line><line x1="192.55208333333331" y1="0" x2="192.55208333333331" y2="5" style="visibility: inherit;" fill="rgb(0, 0, 0)" stroke="rgb(204, 204, 204)" stroke-width="1px"></line><line x1="216.62109375" y1="0" x2="216.62109375" y2="5" style="visibility: inherit;" fill="rgb(0, 0, 0)" stroke="rgb(204, 204, 204)" stroke-width="1px"></line><line x1="240.69010416666669" y1="0" x2="240.69010416666669" y2="5" style="visibility: inherit;" fill="rgb(0, 0, 0)" stroke="rgb(204, 204, 204)" stroke-width="1px"></line><line x1="264.7591145833333" y1="0" x2="264.7591145833333" y2="5" style="visibility: inherit;" fill="rgb(0, 0, 0)" stroke="rgb(204, 204, 204)" stroke-width="1px"></line><line x1="288.828125" y1="0" x2="288.828125" y2="5" style="visibility: inherit;" fill="rgb(0, 0, 0)" stroke="rgb(204, 204, 204)" stroke-width="1px"></line></g><g transform="translate(0, 8)"><text x="0" y="0" dx="0em" dy="0.95em" style="text-anchor: middle; visibility: hidden; font-family: Roboto, sans-serif; font-size: 12px; font-weight: 200;" fill="rgb(33, 33, 33)" stroke="none" stroke-width="1px">-20</text><text x="24.069010416666664" y="0" dx="0em" dy="0.95em" style="text-anchor: middle; visibility: inherit; font-family: Roboto, sans-serif; font-size: 12px; font-weight: 200;" fill="rgb(33, 33, 33)" stroke="none" stroke-width="1px">0</text><text x="48.13802083333333" y="0" dx="0em" dy="0.95em" style="text-anchor: middle; visibility: hidden; font-family: Roboto, sans-serif; font-size: 12px; font-weight: 200;" fill="rgb(33, 33, 33)" stroke="none" stroke-width="1px">20</text><text x="72.20703125" y="0" dx="0em" dy="0.95em" style="text-anchor: middle; visibility: inherit; font-family: Roboto, sans-serif; font-size: 12px; font-weight: 200;" fill="rgb(33, 33, 33)" stroke="none" stroke-width="1px">40</text><text x="96.27604166666666" y="0" dx="0em" dy="0.95em" style="text-anchor: middle; visibility: hidden; font-family: Roboto, sans-serif; font-size: 12px; font-weight: 200;" fill="rgb(33, 33, 33)" stroke="none" stroke-width="1px">60</text><text x="120.34505208333334" y="0" dx="0em" dy="0.95em" style="text-anchor: middle; visibility: inherit; font-family: Roboto, sans-serif; font-size: 12px; font-weight: 200;" fill="rgb(33, 33, 33)" stroke="none" stroke-width="1px">80</text><text x="144.4140625" y="0" dx="0em" dy="0.95em" style="text-anchor: middle; visibility: hidden; font-family: Roboto, sans-serif; font-size: 12px; font-weight: 200;" fill="rgb(33, 33, 33)" stroke="none" stroke-width="1px">100</text><text x="168.48307291666669" y="0" dx="0em" dy="0.95em" style="text-anchor: middle; visibility: inherit; font-family: Roboto, sans-serif; font-size: 12px; font-weight: 200;" fill="rgb(33, 33, 33)" stroke="none" stroke-width="1px">120</text><text x="192.55208333333331" y="0" dx="0em" dy="0.95em" style="text-anchor: middle; visibility: hidden; font-family: Roboto, sans-serif; font-size: 12px; font-weight: 200;" fill="rgb(33, 33, 33)" stroke="none" stroke-width="1px">140</text><text x="216.62109375" y="0" dx="0em" dy="0.95em" style="text-anchor: middle; visibility: inherit; font-family: Roboto, sans-serif; font-size: 12px; font-weight: 200;" fill="rgb(33, 33, 33)" stroke="none" stroke-width="1px">160</text><text x="240.69010416666669" y="0" dx="0em" dy="0.95em" style="text-anchor: middle; visibility: hidden; font-family: Roboto, sans-serif; font-size: 12px; font-weight: 200;" fill="rgb(33, 33, 33)" stroke="none" stroke-width="1px">180</text><text x="264.7591145833333" y="0" dx="0em" dy="0.95em" style="text-anchor: middle; visibility: inherit; font-family: Roboto, sans-serif; font-size: 12px; font-weight: 200;" fill="rgb(33, 33, 33)" stroke="none" stroke-width="1px">200</text><text x="288.828125" y="0" dx="0em" dy="0.95em" style="text-anchor: middle; visibility: hidden; font-family: Roboto, sans-serif; font-size: 12px; font-weight: 200;" fill="rgb(33, 33, 33)" stroke="none" stroke-width="1px">220</text></g><line x1="0" y1="0" x2="288.828125" y2="0" fill="rgb(0, 0, 0)" stroke="rgb(204, 204, 204)" stroke-width="1px"></line></g></g></g></g></svg>