<svg viewBox="0 0 330 200" xmlns="http://www.w3.org/2000/svg"><g><g><g><g><g><line x1="41.171875" y1="177" x2="36.171875" y2="177" style="visibility: inherit;" fill="rgb(0, 0, 0)" stroke="rgb(204, 204, 204)" stroke-width="1px"></line><line x1="41.171875" y1="157.33333333333331" x2="36.171875" y2="157.33333333333331" style="visibility: inherit;" fill="rgb(0, 0, 0)" stroke="rgb(204, 204, 204)" stroke-width="1px"></line><line x1="41.171875" y1="137.66666666666666" x2="36.171875" y2="137.66666666666666" style="visibility: inherit;" fill="rgb(0, 0, 0)" stroke="rgb(204, 204, 204)" stroke-width="1px"></line><line x1="41.171875" y1="118" x2="36.171875" y2="118" style="visibility: inherit;" fill="rgb(0, 0, 0)" stroke="rgb(204, 204, 204)" stroke-width="1px"></line><line x1="41.171875" y1="98.33333333333334" x2="36.171875" y2="98.33333333333334" style="visibility: inherit;" fill="rgb(0, 0, 0)" stroke="rgb(204, 204, 204)" stroke-width="1px"></line><line x1="41.171875" y1="78.66666666666666" x2="36.171875" y2="78.66666666666666" style="visibility: inherit;" fill="rgb(0, 0, 0)" stroke="rgb(204, 204, 204)" stroke-width="1px"></line><line x1="41.171875" y1="59.00000000000001" x2="36.171875" y2="59.00000000000001" style="visibility: inherit;" fill="rgb(0, 0, 0)" stroke="rgb(204, 204, 204)" stroke-width="1px"></line><line x1="41.171875" y1="39.33333333333333" x2="36.171875" y2="39.33333333333333" style="visibility: inherit;" fill="rgb(0, 0, 0)" stroke="rgb(204, 204, 204)" stroke-width="1px"></line><line x1="41.171875" y1="19.666666666666657" x2="36.171875" y2="19.666666666666657" style="visibility: inherit;" fill="rgb(0, 0, 0)" stroke="rgb(204, 204, 204)" stroke-width="1px"></line><line x1="41.171875" y1="0" x2="36.171875" y2="0" style="visibility: inherit;" fill="rgb(0, 0, 0)" stroke="rgb(204, 204, 204)" stroke-width="1px"></line></g><g transform="translate(31.171875, 0)"><text x="0" y="177" dx="0em" dy="0.3em" style="text-anchor: end; visibility: hidden; font-family: Roboto, sans-serif; font-size: 12px; font-weight: 200;" fill="rgb(33, 33, 33)" stroke="none" stroke-width="1px">0.1</text><text x="0" y="157.33333333333331" dx="0em" dy="0.3em" style="text-anchor: end; visibility: inherit; font-family: Roboto, sans-serif; font-size: 12px; font-weight: 200;" fill="rgb(33, 33, 33)" stroke="none" stroke-width="1px">0.2</text><text x="0" y="137.66666666666666" dx="0em" dy="0.3em" style="text-anchor: end; visibility: hidden; font-family: Roboto, sans-serif; font-size: 12px; font-weight: 200;" fill="rgb(33, 33, 33)" stroke="none" stroke-width="1px">0.3</text><text x="0" y="118" dx="0em" dy="0.3em" style="text-anchor: end; visibility: inherit; font-family: Roboto, sans-serif; font-size: 12px; font-weight: 200;" fill="rgb(33, 33, 33)" stroke="none" stroke-width="1px">0.4</text><text x="0" y="98.33333333333334" dx="0em" dy="0.3em" style="text-anchor: end; visibility: hidden; font-family: Roboto, sans-serif; font-size: 12px; font-weight: 200;" fill="rgb(33, 33, 33)" stroke="none" stroke-width="1px">0.5</text><text x="0" y="78.66666666666666" dx="0em" dy="0.3em" style="text-anchor: end; visibility: inherit; font-family: Roboto, sans-serif; font-size: 12px; font-weight: 200;" fill="rgb(33, 33, 33)" stroke="none" stroke-width="1px">0.6</text><text x="0" y="59.00000000000001" dx="0em" dy="0.3em" style="text-anchor: end; visibility: hidden; font-family: Roboto, sans-serif; font-size: 12px; font-weight: 200;" fill="rgb(33, 33, 33)" stroke="none" stroke-width="1px">0.7</text><text x="0" y="39.33333333333333" dx="0em" dy="0.3em" style="text-anchor: end; visibility: inherit; font-family: Roboto, sans-serif; font-size: 12px; font-weight: 200;" fill="rgb(33, 33, 33)" stroke="none" stroke-width="1px">0.8</text><text x="0" y="19.666666666666657" dx="0em" dy="0.3em" style="text-anchor: end; visibility: hidden; font-family: Roboto, sans-serif; font-size: 12px; font-weight: 200;" fill="rgb(33, 33, 33)" stroke="none" stroke-width="1px">0.9</text><text x="0" y="0" dx="0em" dy="0.3em" style="text-anchor: end; visibility: hidden; font-family: Roboto, sans-serif; font-size: 12px; font-weight: 200;" fill="rgb(33, 33, 33)" stroke="none" stroke-width="1px">1</text></g><line x1="41.171875" y1="0" x2="41.171875" y2="177" fill="rgb(0, 0, 0)" stroke="rgb(204, 204, 204)" stroke-width="1px"></line></g></g><g transform="translate(41, 0)" clip-path="url(#clip_0)"><clipPath id="clip_0"><rect width="288" height="177"></rect></clipPath><g><g><g><line x1="0" y1="0" x2="0" y2="177" fill="rgb(0, 0, 0)" stroke="rgb(66, 66, 66)" stroke-width="1px" opacity="0.25"></line><line x1="24.069010416666664" y1="0" x2="24.069010416666664" y2="177" fill="rgb(0, 0, 0)" stroke="rgb(66, 66, 66)" stroke-width="1px" opacity="0.25"></line><line x1="48.13802083333333" y1="0" x2="48.13802083333333" y2="177" fill="rgb(0, 0, 0)" stroke="rgb(66, 66, 66)" stroke-width="1px" opacity="0.25"></line><line x1="72.20703125" y1="0" x2="72.20703125" y2="177" fill="rgb(0, 0, 0)" stroke="rgb(66, 66, 66)" stroke-width="1px" opacity="0.25"></line><line x1="96.27604166666666" y1="0" x2="96.27604166666666" y2="177" fill="rgb(0, 0, 0)" stroke="rgb(66, 66, 66)" stroke-width="1px" opacity="0.25"></line><line x1="120.34505208333334" y1="0" x2="120.34505208333334" y2="177" fill="rgb(0, 0, 0)" stroke="rgb(66, 66, 66)" stroke-width="1px" opacity="0.25"></line><line x1="144.4140625" y1="0" x2="144.4140625" y2="177" fill="rgb(0, 0, 0)" stroke="rgb(66, 66, 66)" stroke-width="1px" opacity="0.25"></line><line x1="168.48307291666669" y1="0" x2="168.48307291666669" y2="177" fill="rgb(0, 0, 0)" stroke="rgb(66, 66, 66)" stroke-width="1px" opacity="0.25"></line><line x1="192.55208333333331" y1="0" x2="192.55208333333331" y2="177" fill="rgb(0, 0, 0)" stroke="rgb(66, 66, 66)" stroke-width="1px" opacity="0.25"></line><line x1="216.62109375" y1="0" x2="216.62109375" y2="177" fill="rgb(0, 0, 0)" stroke="rgb(66, 66, 66)" stroke-width="1px" opacity="0.25"></line><line x1="240.69010416666669" y1="0" x2="240.69010416666669" y2="177" fill="rgb(0, 0, 0)" stroke="rgb(66, 66, 66)" stroke-width="1px" opacity="0.25"></line><line x1="264.7591145833333" y1="0" x2="264.7591145833333" y2="177" fill="rgb(0, 0, 0)" stroke="rgb(66, 66, 66)" stroke-width="1px" opacity="0.25"></line><line x1="288.828125" y1="0" x2="288.828125" y2="177" fill="rgb(0, 0, 0)" stroke="rgb(66, 66, 66)" stroke-width="1px" opacity="0.25"></line></g><g><line x1="0" y1="177" x2="288.828125" y2="177" fill="rgb(0, 0, 0)" stroke="rgb(66, 66, 66)" stroke-width="1px" opacity="0.25"></line><line x1="0" y1="157.33333333333331" x2="288.828125" y2="157.33333333333331" fill="rgb(0, 0, 0)" stroke="rgb(66, 66, 66)" stroke-width="1px" opacity="0.25"></line><line x1="0" y1="137.66666666666666" x2="288.828125" y2="137.66666666666666" fill="rgb(0, 0, 0)" stroke="rgb(66, 66, 66)" stroke-width="1px" opacity="0.25"></line><line x1="0" y1="118" x2="288.828125" y2="118" fill="rgb(0, 0, 0)" stroke="rgb(66, 66, 66)" stroke-width="1px" opacity="0.25"></line><line x1="0" y1="98.33333333333334" x2="288.828125" y2="98.33333333333334" fill="rgb(0, 0, 0)" stroke="rgb(66, 66, 66)" stroke-width="1px" opacity="0.25"></line><line x1="0" y1="78.66666666666666" x2="288.828125" y2="78.66666666666666" fill="rgb(0, 0, 0)" stroke="rgb(66, 66, 66)" stroke-width="1px" opacity="0.25"></line><line x1="0" y1="59.00000000000001" x2="288.828125" y2="59.00000000000001" fill="rgb(0, 0, 0)" stroke="rgb(66, 66, 66)" stroke-width="1px" opacity="0.25"></line><line x1="0" y1="39.33333333333333" x2="288.828125" y2="39.33333333333333" fill="rgb(0, 0, 0)" stroke="rgb(66, 66, 66)" stroke-width="1px" opacity="0.25"></line><line x1="0" y1="19.666666666666657" x2="288.828125" y2="19.666666666666657" fill="rgb(0, 0, 0)" stroke="rgb(66, 66, 66)" stroke-width="1px" opacity="0.25"></line><line x1="0" y1="0" x2="288.828125" y2="0" fill="rgb(0, 0, 0)" stroke="rgb(66, 66, 66)" stroke-width="1px" opacity="0.25"></line></g></g></g><g><g><line x1="0" y1="196.66666666666669" x2="288.828125" y2="196.66666666666669" fill="rgb(0, 0, 0)" stroke="rgb(153, 153, 153)" stroke-width="1.5px"></line></g></g><g><g><line x1="24.069010416666664" y1="0" x2="24.069010416666664" y2="177" fill="rgb(0, 0, 0)" stroke="rgb(153, 153, 153)" stroke-width="1.5px"></line></g></g><g><g><g><g><g><path stroke="rgb(238, 51, 119)" stroke-width="2px" d="M24.069010416666664,99.84889676173529L25.2724609375,98.50104408803992L26.475911458333332,93.97482397715902L27.679361979166668,88.78396621813808L28.8828125,84.62046421244617L30.086263020833336,79.21056621447852L31.289713541666668,75.01212309063463L32.4931640625,71.04093532561133L33.696614583333336,68.32989477258683L34.900065104166664,66.24025442697739L36.103515625,64.02578241430899L37.306966145833336,60.46829776651654L38.510416666666664,57.6003038551412L39.7138671875,54.41020355300568L40.917317708333336,51.41716132567168L42.12076822916667,48.775967849486044L43.32421875,46.24648235248747L44.527669270833336,43.91597843409926L45.731119791666664,43.46426113381594L46.9345703125,42.370393565012385L48.13802083333333,40.9043414016184L49.341471354166664,40.213404619161714L50.544921875,38.43943109797717L51.748372395833336,37.237114837596096L52.951822916666664,36.11241177650795L54.1552734375,35.24029048934977L55.358723958333336,33.96615476747305L56.562174479166664,33.872785176863744L57.765625,33.23398718751668L58.969075520833336,32.77124812170099L60.17252604166667,32.0325777756534L61.3759765625,32.20104441093994L62.579427083333336,31.73427458134194L63.782877604166664,31.019200451782698L64.986328125,30.490264794761003L66.18977864583333,30.22544756101658L67.39322916666667,29.94713110827387L68.5966796875,29.207683061387762L69.80013020833333,30.138087473332366L71.00358072916666,29.450090216191395L72.20703125,28.732098643588127L73.41048177083333,28.43769143184425L74.61393229166667,27.81713388879784L75.8173828125,28.31864574014146L77.02083333333333,28.191242195990988L78.22428385416666,27.60742399725715L79.427734375,27.84939163924793L80.63118489583333,26.999483412945427L81.83463541666667,27.120234601453166L83.0380859375,26.7215509093746L84.24153645833334,26.645869402232837L85.44498697916667,27.082899676294993L86.6484375,27.296856461834178L87.85188802083333,27.479135575999575L89.05533854166667,27.080184745479713L90.2587890625,27.162566024023903L91.46223958333333,26.33544117565325L92.66569010416667,26.105795485226466L93.869140625,26.67547316555541L95.07259114583333,26.07881921946983L96.27604166666666,26.33579624349811L97.4794921875,27.24087492537689L98.68294270833333,27.616143864564556L99.88639322916667,27.19696057744974L101.08984375,27.28844075465277L102.29329427083334,27.02331986917742L103.49674479166667,26.401600480094864L104.7001953125,26.26773626239324L105.90364583333333,26.6286883910829L107.10709635416667,26.091770239896505L108.310546875,25.370427362785563L109.51399739583333,24.914178557844316L110.71744791666667,24.815733506958082L111.9208984375,24.70547064588245L113.12434895833333,24.426804835811833L114.32779947916666,24.321326492435073L115.53125,23.993959934852164L116.73470052083333,24.29559675750958L117.93815104166667,24.051203742036297L119.1416015625,24.74019883530949L120.34505208333334,24.086953268903475L121.54850260416667,24.242882473237962L122.751953125,24.797952106653074L123.95540364583333,24.74309876482844L125.15885416666667,24.511642566342832L126.3623046875,24.235275264527083L127.56575520833333,23.841478765041902L128.76920572916669,23.63790812445524L129.97265625,23.41168878129548L131.17610677083334,23.192560476157258L132.37955729166666,23.58641402088187L133.5830078125,23.76364563068034L134.78645833333334,23.624371566219878L135.98990885416666,23.479320618394883L137.193359375,23.276572321926093L138.39680989583334,23.446883302732836L139.60026041666666,24.014205648692226L140.8037109375,24.075346870693743L142.00716145833331,23.810774419834573L143.21061197916666,24.139521603283157L144.4140625,25.132106863447603L145.61751302083334,24.68474621674882L146.82096354166666,24.936922720707134L148.0244140625,25.019833308280248L149.22786458333334,24.90575217144335L150.43131510416669,24.887721663566445L151.634765625,25.004303457198382L152.83821614583334,24.47030340300748L154.04166666666666,24.200054578224346L155.2451171875,24.23369015008532L156.44856770833331,24.473456323404072L157.65201822916666,25.363842000257165L158.85546875,25.251624746698894L160.05891927083334,25.89489770867333L161.26236979166666,25.80963854210736L162.4658203125,25.52588906833881L163.66927083333334,25.54802208202124L164.87272135416666,24.827997352160637L166.076171875,24.346478330721038L167.27962239583334,24.358443186516112L168.48307291666669,24.73807740405663L169.6865234375,24.50736464924366L170.88997395833334,24.231630766325228L172.09342447916666,23.917540617189818L173.296875,23.676323525723266L174.50032552083331,23.549973179867383L175.70377604166666,23.257601738039398L176.9072265625,23.298776548173073L178.11067708333334,23.544966148904784L179.31412760416666,23.226948032459756L180.517578125,23.430991087840884L181.72102864583334,23.2353956117365L182.92447916666666,23.06874826613086L184.1279296875,22.900375277455666L185.33138020833334,22.62497944458939L186.53483072916669,23.366720625881854L187.73828125,23.154247727981108L188.94173177083334,23.712102872071192L190.14518229166666,24.240172620380626L191.3486328125,23.79287449613141L192.55208333333331,23.332611613369707L193.75553385416666,23.12518684935599L194.958984375,23.054015281579485L196.16243489583334,23.230875218378568L197.36588541666666,22.88017594410677L198.5693359375,22.713323943820185L199.77278645833334,22.544776589345446L200.97623697916666,22.638672355867357L202.1796875,22.29645422434969L203.38313802083334,23.95764297231599L204.58658854166669,23.65771356719636L205.7900390625,23.323008833123367L206.99348958333334,23.301726227560888L208.19694010416666,23.17803911647605L209.400390625,23.230989194550585L210.60384114583331,22.98582738297434L211.80729166666666,22.908893300889794L213.0107421875,22.500293019287206L214.21419270833334,22.416051407224515L215.41764322916666,22.265112672835173L216.62109375,22.057346255331254L217.82454427083334,21.801164386706315L219.02799479166666,21.952337593642884L220.2314453125,21.87002850366446L221.43489583333334,22.063786986863033L222.63834635416669,21.859429055544044L223.841796875,21.94920192592029L225.04524739583334,22.104855027285005L226.24869791666666,22.131915403611274L227.4521484375,21.970251632185743L228.65559895833331,21.858901814270943L229.85904947916666,21.63208972292406L231.0625,21.438845821096617L232.26595052083334,21.406144063223127L233.46940104166666,21.24634011903146L234.6728515625,21.057409993008356L235.87630208333334,21.160327353496047L237.07975260416666,20.98412711677218L238.283203125,21.124278058282506L239.48665364583334,21.00619028282214L240.69010416666669,20.694469100949927L241.8935546875,20.983043759945605L243.09700520833334,20.833081495067265L244.30045572916666,21.10114151973358L245.50390625,20.96008850174627L246.70735677083331,20.787134164849256L247.91080729166666,20.824498016760742L249.1142578125,20.72438823721342L250.31770833333334,20.955757698470247L251.52115885416666,21.126496764121374L252.724609375,21.351131328967654L253.92805989583334,21.278634150357437L255.13151041666666,21.26964371975339L256.3349609375,20.998098045019457L257.53841145833337,20.793128845485803L258.7418619791667,20.697661703287203L259.9453125,20.932986691565098L261.1487630208333,21.054318700666318L262.3522135416667,21.606300347227577L263.5556640625,21.337706657199316" style="fill: none;" fill="none"></path></g><g><path stroke="rgb(51, 187, 238)" stroke-width="2px" d="M24.069010416666664,151.06416965524357L25.2724609375,125.01334808096344L26.475911458333332,111.45918217039524L27.679361979166668,102.10967125777353L28.8828125,95.16592214891116L30.086263020833336,89.6680969534793L31.289713541666668,84.50546496948623L32.4931640625,79.91350531367551L33.696614583333336,75.99523730715696L34.900065104166664,72.53756012983341L36.103515625,69.90097478811299L37.306966145833336,67.33075050142719L38.510416666666664,64.4924298813665L39.7138671875,61.338455068572465L40.917317708333336,58.665158524385774L42.12076822916667,56.09092937425001L43.32421875,53.198147164051115L44.527669270833336,51.44487988200443L45.731119791666664,49.27013813080611L46.9345703125,47.63137641596883L48.13802083333333,45.47243429172679L49.341471354166664,43.98047487640083L50.544921875,42.683473435348276L51.748372395833336,41.28769521407563L52.951822916666664,39.97873534801505L54.1552734375,39.149298418664706L55.358723958333336,37.91752373568841L56.562174479166664,37.08456496731012L57.765625,36.17995787382288L58.969075520833336,35.463294810594526L60.17252604166667,34.859008534991716L61.3759765625,34.171949545795854L62.579427083333336,33.65792179792064L63.782877604166664,33.216010122138535L64.986328125,32.840025920689236L66.18977864583333,32.51539459148027L67.39322916666667,32.22040727235935L68.5966796875,31.46043499183503L69.80013020833333,31.373435184967242L71.00358072916666,30.865464889423144L72.20703125,30.409582316959696L73.41048177083333,30.31980521608858L74.61393229166667,29.99622760430474L75.8173828125,29.781234008935236L77.02083333333333,29.52353144888221L78.22428385416666,29.2667339418178L79.427734375,28.90351758560097L80.63118489583333,28.827107829274457L81.83463541666667,28.780654605744978L83.0380859375,28.694489273840116L84.24153645833334,28.868017315876337L85.44498697916667,28.787562548883606L86.6484375,28.569939921337767L87.85188802083333,28.309998872900184L89.05533854166667,28.065248914325366L90.2587890625,27.777539663283807L91.46223958333333,27.513788385678904L92.66569010416667,27.261130169706316L93.869140625,27.176300841256225L95.07259114583333,27.234455638807212L96.27604166666666,27.423743888891227L97.4794921875,27.45458935552575L98.68294270833333,27.33181327911712L99.88639322916667,27.14802443012334L101.08984375,27.093912622228025L102.29329427083334,27.001230219223586L103.49674479166667,26.968844875711646L104.7001953125,26.81083151819931L105.90364583333333,26.9230736567695L107.10709635416667,26.79978309889858L108.310546875,26.638846324181216L109.51399739583333,26.511043429369032L110.71744791666667,26.378866314691045L111.9208984375,26.187068922099836L113.12434895833333,26.037630827149652L114.32779947916666,26.036071093230262L115.53125,25.950901416632234L116.73470052083333,25.924915524326387L117.93815104166667,25.870171631311482L119.1416015625,25.627901133321668L120.34505208333334,25.430801509501322L121.54850260416667,25.63084071816439L122.751953125,25.50317386997948L123.95540364583333,25.436322042575867L125.15885416666667,25.230314307969888L126.3623046875,25.553182352469474L127.56575520833333,25.525507735612482L128.76920572916669,25.338906199383032L129.97265625,25.282393222347533L131.17610677083334,25.11313993654388L132.37955729166666,24.93633231199277L133.5830078125,24.99529336275293L134.78645833333334,24.994293308049127L135.98990885416666,24.942204665705106L137.193359375,24.841932100231478L138.39680989583334,24.831023940272466L139.60026041666666,24.896255980242405L140.8037109375,24.718941666737617L142.00716145833331,24.511976839230197L143.21061197916666,24.494009025651007L144.4140625,24.460069436419744L145.61751302083334,24.440467545998775L146.82096354166666,24.391162898295576L148.0244140625,24.50751980828457L149.22786458333334,24.452947877969436L150.43131510416669,24.355217745800367L151.634765625,24.19742589334502L152.83821614583334,24.0816182480354L154.04166666666666,24.06213410200895L155.2451171875,24.138688666063196L156.44856770833331,24.352962978696283L157.65201822916666,24.381818416217392L158.85546875,24.392428689357455L160.05891927083334,24.373522992875156L161.26236979166666,24.231652978972622L162.4658203125,24.30640794545255L163.66927083333334,24.262969562381546L164.87272135416666,24.09554124843953L166.076171875,23.92960312783627L167.27962239583334,24.01645763677222L168.48307291666669,24.03456291062122L169.6865234375,23.98012274672823L170.88997395833334,24.199233801110193L172.09342447916666,24.180973564545727L173.296875,24.086233613008083L174.50032552083331,24.19648520450972L175.70377604166666,24.020265565461106L176.9072265625,24.00520343051116L178.11067708333334,23.950450283358162L179.31412760416666,23.796670988344243L180.517578125,23.782095280657796L181.72102864583334,23.732414755986976L182.92447916666666,23.606246532656957L184.1279296875,23.582591622711615L185.33138020833334,23.67888362591852L186.53483072916669,23.569954382742957L187.73828125,23.60756547845065L188.94173177083334,23.760712569994055L190.14518229166666,23.728171245834268L191.3486328125,23.73770805935937L192.55208333333331,23.63404562447078L193.75553385416666,23.494488648935658L194.958984375,23.454770070523082L196.16243489583334,23.309142041711873L197.36588541666666,23.45056276931487L198.5693359375,23.366108640077094L199.77278645833334,23.415256159948367L200.97623697916666,23.32205458448343L202.1796875,23.28922523676257L203.38313802083334,23.42893546505591L204.58658854166669,23.459469976849455L205.7900390625,23.41095960260175L206.99348958333334,23.239209952895624L208.19694010416666,23.153432205227286L209.400390625,23.080349564214316L210.60384114583331,22.910953540511652L211.80729166666666,23.0041765527234L213.0107421875,22.943867375410193L214.21419270833334,22.817958178045284L215.41764322916666,22.901655306615535L216.62109375,22.84254644931201L217.82454427083334,22.871367932726688L219.02799479166666,22.919213033882002L220.2314453125,22.969291698045225L221.43489583333334,22.788384854815675L222.63834635416669,22.871800648787854L223.841796875,22.910265335094625L225.04524739583334,22.78932923969726L226.24869791666666,22.700266245725896L227.4521484375,22.78274903453609L228.65559895833331,22.77850032720123L229.85904947916666,22.779538614987583L231.0625,22.82234344431788L232.26595052083334,22.73770898604163L233.46940104166666,22.754099030298494L234.6728515625,22.670250107318253L235.87630208333334,22.61278364935369L237.07975260416666,22.643004457004672L238.283203125,22.645465122729874L239.48665364583334,22.58700865604866L240.69010416666669,22.420759494898952L241.8935546875,22.31171904486426L243.09700520833334,22.39581378685108L244.30045572916666,22.285807115171792L245.50390625,22.19673961733672L246.70735677083331,22.28853494172624L247.91080729166666,22.36208810656293L249.1142578125,22.298994778595016L250.31770833333334,22.138109649607934L251.52115885416666,22.033639354975787L252.724609375,22.140258880215843L253.92805989583334,22.137941926576474L255.13151041666666,22.224466484783896L256.3349609375,22.135162762267367L257.53841145833337,22.017155782547032L258.7418619791667,22.107583865656245L259.9453125,22.31970558974545L261.1487630208333,22.220962931237782L262.3522135416667,22.188070767196926L263.5556640625,22.118126435297825" style="fill: none;" fill="none"></path></g></g></g></g><g opacity="0.2"><g><g><g><path stroke="rgb(238, 51, 119)" stroke-width="2px" d="M24.069010416666664,99.84889676173529L25.2724609375,97.35267361005147L26.475911458333332,86.83288315931956L27.679361979166668,77.38290011882782L28.8828125,73.28195412953694L30.086263020833336,62.04895873864492L31.289713541666668,60.087639292081185L32.4931640625,55.63010255495707L33.696614583333336,57.05651243527729L34.900065104166664,57.05651243527729L36.103515625,53.84707848230998L37.306966145833336,43.50559512774149L38.510416666666664,43.50559512774149L39.7138671875,38.33484172821044L40.917317708333336,36.01691981156666L42.12076822916667,34.9471124013265L43.32421875,32.80749758084614L44.527669270833336,31.381087700525914L45.731119791666664,41.00936611493429L46.9345703125,36.37352228164673L48.13802083333333,32.80749758084614L49.341471354166664,36.37352228164673L50.544921875,28.528256217638646L51.748372395833336,30.48957566420238L52.951822916666664,29.77637072404225L54.1552734375,30.31126856803894L55.358723958333336,26.745243867238354L56.562174479166664,33.342395424842834L57.765625,29.598063627878826L58.969075520833336,30.132973194122314L60.17252604166667,27.815051277478535L61.3759765625,33.16410005092621L62.579427083333336,29.063165783882134L63.782877604166664,26.92353924115498L64.986328125,27.458448807398486L66.18977864583333,28.70656331380209L67.39322916666667,28.349949121475227L68.5966796875,24.962219794591267L69.80013020833333,35.48202196756999L71.00358072916666,25.49712936083475L72.20703125,24.60561732451122L73.41048177083333,26.745243867238354L74.61393229166667,24.249014854431152L75.8173828125,31.202780604362495L77.02083333333333,27.458448807398486L78.22428385416666,24.249014854431152L79.427734375,29.24146115779876L80.63118489583333,22.109400033950813L81.83463541666667,27.815051277478535L83.0380859375,24.427321950594592L84.24153645833334,26.210334300994866L85.44498697916667,29.598063627878826L86.6484375,28.528256217638646L87.85188802083333,28.528256217638646L89.05533854166667,24.78392442067464L90.2587890625,27.636744181315112L91.46223958333333,21.574490467707324L92.66569010416667,24.78392442067464L93.869140625,29.954666097958874L95.07259114583333,22.644297877947483L96.27604166666666,27.815051277478535L97.4794921875,32.4508951107661L98.68294270833333,29.77637072404225L99.88639322916667,24.78392442067464L101.08984375,27.815051277478535L102.29329427083334,25.49712936083475L103.49674479166667,22.822604974110927L104.7001953125,25.49712936083475L105.90364583333333,28.70656331380209L107.10709635416667,23.000912070274346L108.310546875,21.21788799762726L109.51399739583333,22.28769540786744L110.71744791666667,24.249014854431152L111.9208984375,24.070719480514526L113.12434895833333,22.822604974110927L114.32779947916666,23.71411701043446L115.53125,22.109400033950813L116.73470052083333,26.03203892707824L117.93815104166667,22.644297877947483L119.1416015625,28.70656331380209L120.34505208333334,20.326387683550518L121.54850260416667,25.140526890754707L122.751953125,27.99334665139516L123.95540364583333,24.427321950594592L125.15885416666667,23.179207444190972L126.3623046875,22.644297877947483L127.56575520833333,21.574490467707324L128.76920572916669,22.466002504030858L129.97265625,22.109400033950813L131.17610677083334,21.931092937787373L132.37955729166666,25.85373183091482L133.5830078125,24.78392442067464L134.78645833333334,22.822604974110927L135.98990885416666,22.644297877947483L137.193359375,22.109400033950813L138.39680989583334,24.427321950594592L139.60026041666666,27.280141711235046L140.8037109375,24.427321950594592L142.00716145833331,22.28769540786744L143.21061197916666,26.03203892707824L144.4140625,30.84617813428243L145.61751302083334,22.109400033950813L146.82096354166666,26.388641397158306L148.0244140625,25.49712936083475L149.22786458333334,24.249014854431152L150.43131510416669,24.78392442067464L151.634765625,25.675436456998195L152.83821614583334,21.3961950937907L154.04166666666666,22.644297877947483L155.2451171875,24.427321950594592L156.44856770833331,25.85373183091482L157.65201822916666,30.48957566420238L158.85546875,24.60561732451122L160.05891927083334,29.598063627878826L161.26236979166666,25.318822264671333L162.4658203125,23.892412384351086L163.66927083333334,25.675436456998195L164.87272135416666,20.682990153630566L166.076171875,21.574490467707324L167.27962239583334,24.427321950594592L168.48307291666669,26.92353924115498L169.6865234375,23.179207444190972L170.88997395833334,22.644297877947483L172.09342447916666,22.109400033950813L173.296875,22.28769540786744L174.50032552083331,22.822604974110927L175.70377604166666,21.574490467707324L176.9072265625,23.535809914271038L178.11067708333334,24.962219794591267L179.31412760416666,21.3961950937907L180.517578125,24.60561732451122L181.72102864583334,22.109400033950813L182.92447916666666,22.109400033950813L184.1279296875,21.931092937787373L185.33138020833334,21.039592623710632L186.53483072916669,27.636744181315112L187.73828125,21.931092937787373L188.94173177083334,26.92353924115498L190.14518229166666,27.280141711235046L191.3486328125,21.21788799762726L192.55208333333331,20.682990153630566L193.75553385416666,21.931092937787373L194.958984375,22.644297877947483L196.16243489583334,24.249014854431152L197.36588541666666,20.861285527547192L198.5693359375,21.752797563870747L199.77278645833334,21.574490467707324L200.97623697916666,23.179207444190972L202.1796875,20.326387683550518L203.38313802083334,33.52070252100628L204.58658854166669,21.931092937787373L205.7900390625,21.3961950937907L206.99348958333334,23.179207444190972L208.19694010416666,22.466002504030858L209.400390625,23.535809914271038L210.60384114583331,21.574490467707324L211.80729166666666,22.466002504030858L213.0107421875,20.148080587387078L214.21419270833334,21.931092937787373L215.41764322916666,21.3961950937907L216.62109375,20.861285527547192L217.82454427083334,20.326387683550518L219.02799479166666,22.822604974110927L220.2314453125,21.3961950937907L221.43489583333334,23.179207444190972L222.63834635416669,20.682990153630566L223.841796875,22.466002504030858L225.04524739583334,23.000912070274346L226.24869791666666,22.28769540786744L227.4521484375,21.039592623710632L228.65559895833331,21.21788799762726L229.85904947916666,20.326387683550518L231.0625,20.326387683550518L232.26595052083334,21.21788799762726L233.46940104166666,20.326387683550518L234.6728515625,19.969785213470452L235.87630208333334,21.752797563870747L237.07975260416666,19.969785213470452L238.283203125,21.931092937787373L239.48665364583334,20.326387683550518L240.69010416666669,18.89996608098348L241.8935546875,22.644297877947483L243.09700520833334,19.969785213470452L244.30045572916666,22.644297877947483L245.50390625,20.148080587387078L246.70735677083331,19.791478117307033L247.91080729166666,21.039592623710632L249.1142578125,20.148080587387078L250.31770833333334,22.28769540786744L251.52115885416666,22.109400033950813L252.724609375,22.644297877947483L253.92805989583334,20.861285527547192L255.13151041666666,21.21788799762726L256.3349609375,19.434875647226963L257.53841145833337,19.61317102114359L258.7418619791667,20.148080587387078L259.9453125,22.28769540786744L261.1487630208333,21.752797563870747L262.3522135416667,24.78392442067464L263.5556640625,19.791478117307033" style="fill: none;" fill="none"></path></g><g><path stroke="rgb(51, 187, 238)" stroke-width="2px" d="M24.069010416666664,151.06416965524357L25.2724609375,102.81804809967677L26.475911458333332,90.07200956344603L27.679361979166668,81.57464663187663L28.8828125,76.25593503316244L30.086263020833336,72.22756147384644L31.289713541666668,66.15351517995198L32.4931640625,62.09366738796235L33.696614583333336,59.70181326071422L34.900065104166664,57.34144508838653L36.103515625,57.78204917907715L37.306966145833336,55.07547616958619L38.510416666666664,50.543550054232284L39.7138671875,45.44513463973998L40.917317708333336,44.910119573275246L42.12076822916667,42.61268814404804L43.32421875,37.82899161179859L44.527669270833336,42.01472461223602L45.731119791666664,37.45132426420849L46.9345703125,38.64725132783253L48.13802083333333,33.548835913340255L49.341471354166664,35.68890790144603L50.544921875,35.43713748455048L51.748372395833336,33.45442493756611L52.951822916666664,32.60467926661173L54.1552734375,34.461518327395126L55.358723958333336,30.936685601870227L56.562174479166664,32.35290884971619L57.765625,31.031096577644348L58.969075520833336,31.377289692560826L60.17252604166667,31.408763925234478L61.3759765625,30.244311094284065L62.579427083333336,30.7163776954015L63.782877604166664,30.684915184974663L64.986328125,30.684915184974663L66.18977864583333,30.653440952301032L67.39322916666667,30.52755574385326L68.5966796875,27.097133994102485L69.80013020833333,30.873737136522923L71.00358072916666,27.94686794281005L72.20703125,27.789508501688648L73.41048177083333,29.803707003593445L74.61393229166667,28.13570161660513L75.8173828125,28.544831474622097L77.02083333333333,28.041290640830987L78.22428385416666,27.789508501688648L79.427734375,26.81388934453329L80.63118489583333,28.38747203350067L81.83463541666667,28.513357241948444L83.0380859375,28.19865008195241L84.24153645833334,29.866643746693935L85.44498697916667,28.32453529040018L86.6484375,27.317441900571193L87.85188802083333,26.81388934453329L89.05533854166667,26.656529903411865L90.2587890625,26.121514836947124L91.46223958333333,25.995629628499355L92.66569010416667,25.806795954704278L93.869140625,26.688004136085517L95.07259114583333,27.569212317466736L96.27604166666666,28.513357241948444L97.4794921875,27.632149060567226L98.68294270833333,26.625055670738213L99.88639322916667,26.090040604273472L101.08984375,26.78241511185964L102.29329427083334,26.46769622961681L103.49674479166667,26.78241511185964L104.7001953125,25.90120693047842L105.90364583333333,27.569212317466736L107.10709635416667,26.090040604273472L108.310546875,25.712384978930157L109.51399739583333,25.775321722030647L110.71744791666667,25.61796228090922L111.9208984375,25.082947214444484L113.12434895833333,25.1773581902186L114.32779947916666,26.02709213892619L115.53125,25.4606028397878L116.73470052083333,25.775321722030647L117.93815104166667,25.555025537808735L119.1416015625,24.233213265736897L120.34505208333334,24.296150008837383L121.54850260416667,26.78241511185964L122.751953125,24.768228332201634L123.95540364583333,25.051472981770832L125.15885416666667,24.04437959194184L126.3623046875,27.41185287634531L127.56575520833333,25.36619186401368L128.76920572916669,24.26468749841055L129.97265625,24.95706200599671L131.17610677083334,24.13879056771596L132.37955729166666,23.918494383494068L133.5830078125,25.334717631340027L134.78645833333334,24.988536238670342L135.98990885416666,24.642343123753864L137.193359375,24.26468749841055L138.39680989583334,24.768228332201634L139.60026041666666,25.271780888239537L140.8037109375,23.69818647702534L142.00716145833331,23.320530851682026L143.21061197916666,24.39057270685832L144.4140625,24.26468749841055L145.61751302083334,24.327624241511035L146.82096354166666,24.107328057289124L148.0244140625,25.1773581902186L149.22786458333334,24.13879056771596L150.43131510416669,23.792609175046277L151.634765625,23.289056619008374L152.83821614583334,23.414941827456165L154.04166666666666,23.9499686161677L155.2451171875,24.57939465840658L156.44856770833331,25.58648804823557L157.65201822916666,24.547932147979743L158.85546875,24.45350944995881L160.05891927083334,24.26468749841055L161.26236979166666,23.414941827456165L162.4658203125,24.736754099528003L163.66927083333334,24.01290535926819L164.87272135416666,23.13169717788697L166.076171875,22.974337736765545L167.27962239583334,24.51645791530609L168.48307291666669,24.13879056771596L169.6865234375,23.666723966598504L170.88997395833334,25.4606028397878L172.09342447916666,24.07585382461547L173.296875,23.54083875815073L174.50032552083331,24.831176797548938L175.70377604166666,23.005811969439197L176.9072265625,23.918494383494068L178.11067708333334,23.635249733924873L179.31412760416666,22.911400993665058L180.517578125,23.69818647702534L181.72102864583334,23.446416060129796L182.92447916666666,22.879926760991406L184.1279296875,23.446416060129796L185.33138020833334,24.233213265736897L186.53483072916669,22.94287522633871L187.73828125,23.82408340771993L188.94173177083334,24.642343123753864L190.14518229166666,23.54083875815073L191.3486328125,23.792609175046277L192.55208333333331,23.037286202112828L193.75553385416666,22.69109308719635L194.958984375,23.226119875907905L196.16243489583334,22.47079690297444L197.36588541666666,24.26468749841055L198.5693359375,22.879926760991406L199.77278645833334,23.69818647702534L200.97623697916666,22.785515785217285L202.1796875,23.100234667460132L203.38313802083334,24.233213265736897L204.58658854166669,23.635249733924873L205.7900390625,23.13169717788697L206.99348958333334,22.25048899650573L208.19694010416666,22.659630576769512L209.400390625,22.659630576769512L210.60384114583331,21.935781836509697L211.80729166666666,23.54083875815073L213.0107421875,22.59668211142223L214.21419270833334,22.093129555384326L215.41764322916666,23.38347931702931L216.62109375,22.50227113564809L217.82454427083334,23.037286202112828L219.02799479166666,23.194645643234253L220.2314453125,23.257582386334743L221.43489583333334,21.74694816271464L222.63834635416669,23.352005084355678L223.841796875,23.13169717788697L225.04524739583334,22.093129555384326L226.24869791666666,22.18755225340526L227.4521484375,23.257582386334743L228.65559895833331,22.754041552543633L229.85904947916666,22.785515785217285L231.0625,23.06876043478648L232.26595052083334,22.25048899650573L233.46940104166666,22.848452528317775L234.6728515625,22.18755225340526L235.87630208333334,22.281963229179382L237.07975260416666,22.816978295644123L238.283203125,22.659630576769512L239.48665364583334,22.25048899650573L240.69010416666669,21.463703513145447L241.8935546875,21.68399969736736L243.09700520833334,22.879926760991406L244.30045572916666,21.652525464693706L245.50390625,21.68399969736736L246.70735677083331,22.816978295644123L247.91080729166666,22.785515785217285L249.1142578125,21.935781836509697L250.31770833333334,21.211933096249904L251.52115885416666,21.432229280471795L252.724609375,22.754041552543633L253.92805989583334,22.124603788057957L255.13151041666666,22.722567319870002L256.3349609375,21.621062954266872L257.53841145833337,21.337818304697674L258.7418619791667,22.62815634409586L259.9453125,23.54083875815073L261.1487630208333,21.652525464693706L262.3522135416667,21.998718579610188L263.5556640625,21.71547393004099" style="fill: none;" fill="none"></path></g></g></g></g></g></g><g transform="translate(41, 177)" clip-path="url(#clip_1)"><clipPath id="clip_1"><rect width="288" height="23"></rect></clipPath><g><g><line x1="0" y1="0" x2="0" y2="5" style="visibility: inherit;" fill="rgb(0, 0, 0)" stroke="rgb(204, 204, 204)" stroke-width="1px"></line><line x1="24.069010416666664" y1="0" x2="24.069010416666664" y2="5" style="visibility: inherit;" fill="rgb(0, 0, 0)" stroke="rgb(204, 204, 204)" stroke-width="1px"></line><line x1="48.13802083333333" y1="0" x2="48.13802083333333" y2="5" style="visibility: inherit;" fill="rgb(0, 0, 0)" stroke="rgb(204, 204, 204)" stroke-width="1px"></line><line x1="72.20703125" y1="0" x2="72.20703125" y2="5" style="visibility: inherit;" fill="rgb(0, 0, 0)" stroke="rgb(204, 204, 204)" stroke-width="1px"></line><line x1="96.27604166666666" y1="0" x2="96.27604166666666" y2="5" style="visibility: inherit;" fill="rgb(0, 0, 0)" stroke="rgb(204, 204, 204)" stroke-width="1px"></line><line x1="120.34505208333334" y1="0" x2="120.34505208333334" y2="5" style="visibility: inherit;" fill="rgb(0, 0, 0)" stroke="rgb(204, 204, 204)" stroke-width="1px"></line><line x1="144.4140625" y1="0" x2="144.4140625" y2="5" style="visibility: inherit;" fill="rgb(0, 0, 0)" stroke="rgb(204, 204, 204)" stroke-width="1px"></line><line x1="168.48307291666669" y1="0" x2="168.48307291666669" y2="5" style="visibility: inherit;" fill="rgb(0, 0, 0)" stroke="rgb(204, 204, 204)" stroke-width="1px"></line><line x1="192.55208333333331" y1="0" x2="192.55208333333331" y2="5" style="visibility: inherit;" fill="rgb(0, 0, 0)" stroke="rgb(204, 204, 204)" stroke-width="1px"></line><line x1="216.62109375" y1="0" x2="216.62109375" y2="5" style="visibility: inherit;" fill="rgb(0, 0, 0)" stroke="rgb(204, 204, 204)" stroke-width="1px"></line><line x1="240.69010416666669" y1="0" x2="240.69010416666669" y2="5" style="visibility: inherit;" fill="rgb(0, 0, 0)" stroke="rgb(204, 204, 204)" stroke-width="1px"></line><line x1="264.7591145833333" y1="0" x2="264.7591145833333" y2="5" style="visibility: inherit;" fill="rgb(0, 0, 0)" stroke="rgb(204, 204, 204)" stroke-width="1px"></line><line x1="288.828125" y1="0" x2="288.828125" y2="5" style="visibility: inherit;" fill="rgb(0, 0, 0)" stroke="rgb(204, 204, 204)" stroke-width="1px"></line></g><g transform="translate(0, 8)"><text x="0" y="0" dx="0em" dy="0.95em" style="text-anchor: middle; visibility: hidden; font-family: Roboto, sans-serif; font-size: 12px; font-weight: 200;" fill="rgb(33, 33, 33)" stroke="none" stroke-width="1px">-20</text><text x="24.069010416666664" y="0" dx="0em" dy="0.95em" style="text-anchor: middle; visibility: inherit; font-family: Roboto, sans-serif; font-size: 12px; font-weight: 200;" fill="rgb(33, 33, 33)" stroke="none" stroke-width="1px">0</text><text x="48.13802083333333" y="0" dx="0em" dy="0.95em" style="text-anchor: middle; visibility: hidden; font-family: Roboto, sans-serif; font-size: 12px; font-weight: 200;" fill="rgb(33, 33, 33)" stroke="none" stroke-width="1px">20</text><text x="72.20703125" y="0" dx="0em" dy="0.95em" style="text-anchor: middle; visibility: inherit; font-family: Roboto, sans-serif; font-size: 12px; font-weight: 200;" fill="rgb(33, 33, 33)" stroke="none" stroke-width="1px">40</text><text x="96.27604166666666" y="0" dx="0em" dy="0.95em" style="text-anchor: middle; visibility: hidden; font-family: Roboto, sans-serif; font-size: 12px; font-weight: 200;" fill="rgb(33, 33, 33)" stroke="none" stroke-width="1px">60</text><text x="120.34505208333334" y="0" dx="0em" dy="0.95em" style="text-anchor: middle; visibility: inherit; font-family: Roboto, sans-serif; font-size: 12px; font-weight: 200;" fill="rgb(33, 33, 33)" stroke="none" stroke-width="1px">80</text><text x="144.4140625" y="0" dx="0em" dy="0.95em" style="text-anchor: middle; visibility: hidden; font-family: Roboto, sans-serif; font-size: 12px; font-weight: 200;" fill="rgb(33, 33, 33)" stroke="none" stroke-width="1px">100</text><text x="168.48307291666669" y="0" dx="0em" dy="0.95em" style="text-anchor: middle; visibility: inherit; font-family: Roboto, sans-serif; font-size: 12px; font-weight: 200;" fill="rgb(33, 33, 33)" stroke="none" stroke-width="1px">120</text><text x="192.55208333333331" y="0" dx="0em" dy="0.95em" style="text-anchor: middle; visibility: hidden; font-family: Roboto, sans-serif; font-size: 12px; font-weight: 200;" fill="rgb(33, 33, 33)" stroke="none" stroke-width="1px">140</text><text x="216.62109375" y="0" dx="0em" dy="0.95em" style="text-anchor: middle; visibility: inherit; font-family: Roboto, sans-serif; font-size: 12px; font-weight: 200;" fill="rgb(33, 33, 33)" stroke="none" stroke-width="1px">160</text><text x="240.69010416666669" y="0" dx="0em" dy="0.95em" style="text-anchor: middle; visibility: hidden; font-family: Roboto, sans-serif; font-size: 12px; font-weight: 200;" fill="rgb(33, 33, 33)" stroke="none" stroke-width="1px">180</text><text x="264.7591145833333" y="0" dx="0em" dy="0.95em" style="text-anchor: middle; visibility: inherit; font-family: Roboto, sans-serif; font-size: 12px; font-weight: 200;" fill="rgb(33, 33, 33)" stroke="none" stroke-width="1px">200</text><text x="288.828125" y="0" dx="0em" dy="0.95em" style="text-anchor: middle; visibility: hidden; font-family: Roboto, sans-serif; font-size: 12px; font-weight: 200;" fill="rgb(33, 33, 33)" stroke="none" stroke-width="1px">220</text></g><line x1="0" y1="0" x2="288.828125" y2="0" fill="rgb(0, 0, 0)" stroke="rgb(204, 204, 204)" stroke-width="1px"></line></g></g></g></g></svg>