<svg viewBox="0 0 330 200" xmlns="http://www.w3.org/2000/svg"><g><g><g><g><g><line x1="51.5625" y1="177" x2="46.5625" y2="177" style="visibility: inherit;" fill="rgb(0, 0, 0)" stroke="rgb(204, 204, 204)" stroke-width="1px"></line><line x1="51.5625" y1="159.3" x2="46.5625" y2="159.3" style="visibility: inherit;" fill="rgb(0, 0, 0)" stroke="rgb(204, 204, 204)" stroke-width="1px"></line><line x1="51.5625" y1="141.6" x2="46.5625" y2="141.6" style="visibility: inherit;" fill="rgb(0, 0, 0)" stroke="rgb(204, 204, 204)" stroke-width="1px"></line><line x1="51.5625" y1="123.90000000000003" x2="46.5625" y2="123.90000000000003" style="visibility: inherit;" fill="rgb(0, 0, 0)" stroke="rgb(204, 204, 204)" stroke-width="1px"></line><line x1="51.5625" y1="106.20000000000002" x2="46.5625" y2="106.20000000000002" style="visibility: inherit;" fill="rgb(0, 0, 0)" stroke="rgb(204, 204, 204)" stroke-width="1px"></line><line x1="51.5625" y1="88.5" x2="46.5625" y2="88.5" style="visibility: inherit;" fill="rgb(0, 0, 0)" stroke="rgb(204, 204, 204)" stroke-width="1px"></line><line x1="51.5625" y1="70.80000000000003" x2="46.5625" y2="70.80000000000003" style="visibility: inherit;" fill="rgb(0, 0, 0)" stroke="rgb(204, 204, 204)" stroke-width="1px"></line><line x1="51.5625" y1="53.10000000000001" x2="46.5625" y2="53.10000000000001" style="visibility: inherit;" fill="rgb(0, 0, 0)" stroke="rgb(204, 204, 204)" stroke-width="1px"></line><line x1="51.5625" y1="35.400000000000034" x2="46.5625" y2="35.400000000000034" style="visibility: inherit;" fill="rgb(0, 0, 0)" stroke="rgb(204, 204, 204)" stroke-width="1px"></line><line x1="51.5625" y1="17.700000000000017" x2="46.5625" y2="17.700000000000017" style="visibility: inherit;" fill="rgb(0, 0, 0)" stroke="rgb(204, 204, 204)" stroke-width="1px"></line><line x1="51.5625" y1="0" x2="46.5625" y2="0" style="visibility: inherit;" fill="rgb(0, 0, 0)" stroke="rgb(204, 204, 204)" stroke-width="1px"></line></g><g transform="translate(41.5625, 0)"><text x="0" y="177" dx="0em" dy="0.3em" style="text-anchor: end; visibility: hidden; font-family: Roboto, sans-serif; font-size: 12px; font-weight: 200;" fill="rgb(33, 33, 33)" stroke="none" stroke-width="1px">0.55</text><text x="0" y="159.3" dx="0em" dy="0.3em" style="text-anchor: end; visibility: inherit; font-family: Roboto, sans-serif; font-size: 12px; font-weight: 200;" fill="rgb(33, 33, 33)" stroke="none" stroke-width="1px">0.6</text><text x="0" y="141.6" dx="0em" dy="0.3em" style="text-anchor: end; visibility: hidden; font-family: Roboto, sans-serif; font-size: 12px; font-weight: 200;" fill="rgb(33, 33, 33)" stroke="none" stroke-width="1px">0.65</text><text x="0" y="123.90000000000003" dx="0em" dy="0.3em" style="text-anchor: end; visibility: inherit; font-family: Roboto, sans-serif; font-size: 12px; font-weight: 200;" fill="rgb(33, 33, 33)" stroke="none" stroke-width="1px">0.7</text><text x="0" y="106.20000000000002" dx="0em" dy="0.3em" style="text-anchor: end; visibility: hidden; font-family: Roboto, sans-serif; font-size: 12px; font-weight: 200;" fill="rgb(33, 33, 33)" stroke="none" stroke-width="1px">0.75</text><text x="0" y="88.5" dx="0em" dy="0.3em" style="text-anchor: end; visibility: inherit; font-family: Roboto, sans-serif; font-size: 12px; font-weight: 200;" fill="rgb(33, 33, 33)" stroke="none" stroke-width="1px">0.8</text><text x="0" y="70.80000000000003" dx="0em" dy="0.3em" style="text-anchor: end; visibility: hidden; font-family: Roboto, sans-serif; font-size: 12px; font-weight: 200;" fill="rgb(33, 33, 33)" stroke="none" stroke-width="1px">0.85</text><text x="0" y="53.10000000000001" dx="0em" dy="0.3em" style="text-anchor: end; visibility: inherit; font-family: Roboto, sans-serif; font-size: 12px; font-weight: 200;" fill="rgb(33, 33, 33)" stroke="none" stroke-width="1px">0.9</text><text x="0" y="35.400000000000034" dx="0em" dy="0.3em" style="text-anchor: end; visibility: hidden; font-family: Roboto, sans-serif; font-size: 12px; font-weight: 200;" fill="rgb(33, 33, 33)" stroke="none" stroke-width="1px">0.95</text><text x="0" y="17.700000000000017" dx="0em" dy="0.3em" style="text-anchor: end; visibility: inherit; font-family: Roboto, sans-serif; font-size: 12px; font-weight: 200;" fill="rgb(33, 33, 33)" stroke="none" stroke-width="1px">1</text><text x="0" y="0" dx="0em" dy="0.3em" style="text-anchor: end; visibility: hidden; font-family: Roboto, sans-serif; font-size: 12px; font-weight: 200;" fill="rgb(33, 33, 33)" stroke="none" stroke-width="1px">1.05</text></g><line x1="51.5625" y1="0" x2="51.5625" y2="177" fill="rgb(0, 0, 0)" stroke="rgb(204, 204, 204)" stroke-width="1px"></line></g></g><g transform="translate(51, 0)" clip-path="url(#clip_0)"><clipPath id="clip_0"><rect width="278" height="177"></rect></clipPath><g><g><g><line x1="0" y1="0" x2="0" y2="177" fill="rgb(0, 0, 0)" stroke="rgb(66, 66, 66)" stroke-width="1px" opacity="0.25"></line><line x1="23.203125" y1="0" x2="23.203125" y2="177" fill="rgb(0, 0, 0)" stroke="rgb(66, 66, 66)" stroke-width="1px" opacity="0.25"></line><line x1="46.40625" y1="0" x2="46.40625" y2="177" fill="rgb(0, 0, 0)" stroke="rgb(66, 66, 66)" stroke-width="1px" opacity="0.25"></line><line x1="69.609375" y1="0" x2="69.609375" y2="177" fill="rgb(0, 0, 0)" stroke="rgb(66, 66, 66)" stroke-width="1px" opacity="0.25"></line><line x1="92.8125" y1="0" x2="92.8125" y2="177" fill="rgb(0, 0, 0)" stroke="rgb(66, 66, 66)" stroke-width="1px" opacity="0.25"></line><line x1="116.015625" y1="0" x2="116.015625" y2="177" fill="rgb(0, 0, 0)" stroke="rgb(66, 66, 66)" stroke-width="1px" opacity="0.25"></line><line x1="139.21875" y1="0" x2="139.21875" y2="177" fill="rgb(0, 0, 0)" stroke="rgb(66, 66, 66)" stroke-width="1px" opacity="0.25"></line><line x1="162.421875" y1="0" x2="162.421875" y2="177" fill="rgb(0, 0, 0)" stroke="rgb(66, 66, 66)" stroke-width="1px" opacity="0.25"></line><line x1="185.625" y1="0" x2="185.625" y2="177" fill="rgb(0, 0, 0)" stroke="rgb(66, 66, 66)" stroke-width="1px" opacity="0.25"></line><line x1="208.828125" y1="0" x2="208.828125" y2="177" fill="rgb(0, 0, 0)" stroke="rgb(66, 66, 66)" stroke-width="1px" opacity="0.25"></line><line x1="232.03125" y1="0" x2="232.03125" y2="177" fill="rgb(0, 0, 0)" stroke="rgb(66, 66, 66)" stroke-width="1px" opacity="0.25"></line><line x1="255.234375" y1="0" x2="255.234375" y2="177" fill="rgb(0, 0, 0)" stroke="rgb(66, 66, 66)" stroke-width="1px" opacity="0.25"></line><line x1="278.4375" y1="0" x2="278.4375" y2="177" fill="rgb(0, 0, 0)" stroke="rgb(66, 66, 66)" stroke-width="1px" opacity="0.25"></line></g><g><line x1="0" y1="177" x2="278.4375" y2="177" fill="rgb(0, 0, 0)" stroke="rgb(66, 66, 66)" stroke-width="1px" opacity="0.25"></line><line x1="0" y1="159.3" x2="278.4375" y2="159.3" fill="rgb(0, 0, 0)" stroke="rgb(66, 66, 66)" stroke-width="1px" opacity="0.25"></line><line x1="0" y1="141.6" x2="278.4375" y2="141.6" fill="rgb(0, 0, 0)" stroke="rgb(66, 66, 66)" stroke-width="1px" opacity="0.25"></line><line x1="0" y1="123.90000000000003" x2="278.4375" y2="123.90000000000003" fill="rgb(0, 0, 0)" stroke="rgb(66, 66, 66)" stroke-width="1px" opacity="0.25"></line><line x1="0" y1="106.20000000000002" x2="278.4375" y2="106.20000000000002" fill="rgb(0, 0, 0)" stroke="rgb(66, 66, 66)" stroke-width="1px" opacity="0.25"></line><line x1="0" y1="88.5" x2="278.4375" y2="88.5" fill="rgb(0, 0, 0)" stroke="rgb(66, 66, 66)" stroke-width="1px" opacity="0.25"></line><line x1="0" y1="70.80000000000003" x2="278.4375" y2="70.80000000000003" fill="rgb(0, 0, 0)" stroke="rgb(66, 66, 66)" stroke-width="1px" opacity="0.25"></line><line x1="0" y1="53.10000000000001" x2="278.4375" y2="53.10000000000001" fill="rgb(0, 0, 0)" stroke="rgb(66, 66, 66)" stroke-width="1px" opacity="0.25"></line><line x1="0" y1="35.400000000000034" x2="278.4375" y2="35.400000000000034" fill="rgb(0, 0, 0)" stroke="rgb(66, 66, 66)" stroke-width="1px" opacity="0.25"></line><line x1="0" y1="17.700000000000017" x2="278.4375" y2="17.700000000000017" fill="rgb(0, 0, 0)" stroke="rgb(66, 66, 66)" stroke-width="1px" opacity="0.25"></line><line x1="0" y1="0" x2="278.4375" y2="0" fill="rgb(0, 0, 0)" stroke="rgb(66, 66, 66)" stroke-width="1px" opacity="0.25"></line></g></g></g><g><g><line x1="0" y1="371.7" x2="278.4375" y2="371.7" fill="rgb(0, 0, 0)" stroke="rgb(153, 153, 153)" stroke-width="1.5px"></line></g></g><g><g><line x1="23.203125" y1="0" x2="23.203125" y2="177" fill="rgb(0, 0, 0)" stroke="rgb(153, 153, 153)" stroke-width="1.5px"></line></g></g><g><g><g><g><g><path stroke="rgb(0, 119, 187)" stroke-width="2px" d="M23.203125,105.95929069519045L25.523437499999996,79.6184033263064L27.84375,70.04123480111254L30.1640625,61.59831020211964L32.484375,55.92825991490821L34.8046875,50.688852357446706L37.125,45.982812533334L39.4453125,42.42371336876856L41.765625,39.62172887168527L44.0859375,37.997402127940646L46.40625,35.976298711864736L48.7265625,34.143194181980924L51.04687499999999,32.55684362577013L53.36718750000001,31.372203221571173L55.6875,30.766381675458355L58.0078125,29.80329800434693L60.328125,29.05537038121298L62.6484375,28.432400234515544L64.96875,28.011419692331053L67.2890625,27.807013291314714L69.609375,27.340001950324638L71.92968750000001,26.70195810304191L74.25,26.65087142210996L76.5703125,26.365014184873964L78.890625,26.123172244783436L81.2109375,25.773601789924616L83.53125,25.910508992603354L85.8515625,25.9305687325197L88.171875,25.61187280964677L90.4921875,26.538481762232877L92.8125,25.986530168258312L95.1328125,25.373977185681937L97.453125,25.0917927427064L99.7734375,24.708647573630735L102.09374999999999,24.764060323580434L104.4140625,24.525323861445337L106.73437500000001,25.084153661409577L109.0546875,24.798140849608295L111.375,24.459453240573406L113.6953125,24.361383401209075L116.015625,24.040039094338304L118.3359375,23.86149371501798L120.65625,23.614332651512164L122.9765625,23.451362989906226L125.296875,23.502690390494433L127.6171875,23.78405973442469L129.9375,23.45343445518899L132.2578125,24.217260566890488L134.578125,24.107656415611622L136.8984375,23.824221269296064L139.21875,23.58276037455739L141.5390625,23.329545094422066L143.85937500000003,23.303859330757067L146.1796875,22.99692985105779L148.5,22.972974962706473L150.8203125,22.905059323389647L153.140625,22.847197567537986L155.4609375,22.702893397817306L157.78125,22.76996264747321L160.1015625,23.11212000481853L162.421875,22.92861015996328L164.7421875,23.247280254471672L167.0625,23.09126859380094L169.38281249999997,22.9108488664238L171.703125,22.804632323227686L174.0234375,22.714136704778745L176.34375,22.5895361485344L178.66406250000003,22.3883765542765L180.984375,22.40699041610232L183.3046875,22.375347693116762L185.625,22.49088975949346L187.9453125,22.874330725227342L190.265625,23.106021705024848L192.5859375,22.970921816864465L194.90625,22.713319325674544L197.2265625,22.683841209724676L199.546875,22.706227116314455L201.8671875,22.582799438565864L204.18749999999997,22.430138021792043L206.5078125,22.25257261148726L208.828125,22.101287014472774L211.1484375,22.114888849429423L213.46875000000003,21.93647948931931L215.7890625,21.784474796882773L218.109375,21.74996587292153L220.4296875,21.76806534117999L222.75,21.87848506532334L225.0703125,21.877563673552526L227.390625,21.734278647687216L229.7109375,21.75469981763438L232.03125,21.62959867625649L234.3515625,21.9030113861996L236.671875,22.040960054921403L238.99218749999997,21.87349240849424L241.3125,22.063307773473124L243.6328125,21.9400336976772L245.953125,21.835004192194454L248.27343750000003,21.65052014616339L250.59375,21.873335388121532L252.9140625,22.06317396633808" style="fill: none;" fill="none"></path></g><g><path stroke="rgb(255, 112, 67)" stroke-width="2px" d="M23.203125,165.95059890747072L25.523437499999996,115.20502666438368L27.84375,89.53375016754626L30.1640625,74.76970618604702L32.484375,64.32595000353373L34.8046875,56.91170508769372L37.125,51.11359825733401L39.4453125,46.6004536263238L41.765625,42.95257984840079L44.0859375,39.89932732006716L46.40625,37.35989484185799L48.7265625,35.247924946645995L51.04687499999999,33.44950382156905L53.36718750000001,31.90157623592966L55.6875,30.752122883679995L58.0078125,29.585652476351154L60.328125,28.698963522129223L62.6484375,27.818316228108838L64.96875,27.30228733641233L67.2890625,26.65992183826217L69.609375,26.111350341480964L71.92968750000001,25.597499285650635L74.25,25.14675703463078L76.5703125,24.843003665142987L78.890625,24.551862350260993L81.2109375,24.177541619178793L83.53125,23.979187852147998L85.8515625,23.93811489492949L88.171875,23.894782857559207L90.4921875,23.579020469784457L92.8125,23.521779883383807L95.1328125,23.355042241933297L97.453125,23.154269184592508L99.7734375,22.916125012614486L102.09374999999999,22.747168408682946L104.4140625,22.519286762609333L106.73437500000001,22.476644289910737L109.0546875,22.566389276327886L111.375,22.474791436375423L113.6953125,22.38840019379635L116.015625,22.18049869739118L118.3359375,21.96147913611361L120.65625,21.816906724794958L122.9765625,21.64342556195139L125.296875,21.646685643099907L127.6171875,21.498454492214226L129.9375,21.355408718576832L132.2578125,21.384536753721772L134.578125,21.300315415319403L136.8984375,21.32082438530804L139.21875,21.162179287470437L141.5390625,21.052186273150816L143.85937500000003,21.04233474536738L146.1796875,20.97524460726297L148.5,20.951627861906267L150.8203125,20.78057540811351L153.140625,20.970242361194597L155.4609375,20.871904017755885L157.78125,20.77973684344288L160.1015625,20.676059628705733L162.421875,20.512267861922865L164.7421875,20.364334697608907L167.0625,20.313757118797355L169.38281249999997,20.337739605254587L171.703125,20.416864244407748L174.0234375,20.224366175076224L176.34375,20.02681949799269L178.66406250000003,19.88366558728879L180.984375,19.845541625902836L183.3046875,19.762754206031595L185.625,19.926976193365523L187.9453125,19.76506434891768L190.265625,19.769645097727945L192.5859375,19.614249266008926L194.90625,19.557309153123075L197.2265625,19.458490720901967L199.546875,19.407836646700897L201.8671875,19.35629466958175L204.18749999999997,19.505214878960196L206.5078125,19.330268446177136L208.828125,19.273437153079033L211.1484375,19.157945155834582L213.46875000000003,19.017625411039297L215.7890625,18.906457800882258L218.109375,18.895584253514162L220.4296875,18.827629907371545L222.75,18.903879343868045L225.0703125,19.136523069676706L227.390625,19.01614342361133L229.7109375,18.913579986424388L232.03125,19.002259868963023L234.3515625,18.935287047011155L236.671875,18.92014677937186L238.99218749999997,18.781485571027346L241.3125,18.671730970163246L243.6328125,18.561450582951665L245.953125,18.501027524925323L248.27343750000003,18.399244906889813L250.59375,18.840720811691217L252.9140625,19.26716356313184" style="fill: none;" fill="none"></path></g></g></g></g><g opacity="0.2"><g><g><g><path stroke="rgb(0, 119, 187)" stroke-width="2px" d="M23.203125,105.95929069519045L25.523437499999996,57.17596728801729L27.84375,54.92938227653505L30.1640625,43.05448837280275L32.484375,40.486950588226335L34.8046875,34.068085026741045L37.125,29.25394113063814L39.4453125,28.612056684494036L41.765625,27.97017223834993L44.0859375,30.858662796020525L46.40625,26.686403346061724L48.7265625,25.402634453773516L51.04687499999999,24.76075000762941L53.36718750000001,25.402634453773516L55.6875,27.649219465255754L58.0078125,24.76075000762941L60.328125,25.08168168067934L62.6484375,25.08168168067934L64.96875,25.723566126823442L67.2890625,26.686403346061724L69.609375,24.76075000762941L71.92968750000001,23.156028342247026L74.25,26.365450572967546L76.5703125,24.76075000762941L78.890625,24.76075000762941L81.2109375,23.79791278839113L83.53125,26.686403346061724L85.8515625,26.04451889991762L88.171875,23.79791278839113L90.4921875,31.821478915214556L92.8125,22.8350966691971L95.1328125,21.87225944995882L97.453125,23.476981115341204L99.7734375,22.514143896102922L102.09374999999999,25.08168168067934L104.4140625,23.156028342247026L106.73437500000001,28.29112501144411L109.0546875,23.156028342247026L111.375,22.514143896102922L113.6953125,23.79791278839113L116.015625,22.193191123008745L118.3359375,22.8350966691971L120.65625,22.193191123008745L122.9765625,22.514143896102922L125.296875,23.79791278839113L127.6171875,25.402634453773516L129.9375,21.55130667686464L132.2578125,28.612056684494036L134.578125,23.476981115341204L136.8984375,22.193191123008745L139.21875,22.193191123008745L141.5390625,21.87225944995882L143.85937500000003,23.156028342247026L146.1796875,21.230375003814714L148.5,22.8350966691971L150.8203125,22.514143896102922L153.140625,22.514143896102922L155.4609375,21.87225944995882L157.78125,23.156028342247026L160.1015625,25.08168168067934L162.421875,21.87225944995882L164.7421875,25.08168168067934L167.0625,22.193191123008745L169.38281249999997,21.87225944995882L171.703125,22.193191123008745L174.0234375,22.193191123008745L176.34375,21.87225944995882L178.66406250000003,21.230375003814714L180.984375,22.514143896102922L183.3046875,22.193191123008745L185.625,23.156028342247026L187.9453125,25.08168168067934L190.265625,24.439797234535234L192.5859375,22.193191123008745L194.90625,21.230375003814714L197.2265625,22.514143896102922L199.546875,22.8350966691971L201.8671875,21.87225944995882L204.18749999999997,21.55130667686464L206.5078125,21.230375003814714L208.828125,21.230375003814714L211.1484375,22.193191123008745L213.46875000000003,20.909422230720537L215.7890625,20.909422230720537L218.109375,21.55130667686464L220.4296875,21.87225944995882L222.75,22.514143896102922L225.0703125,21.87225944995882L227.390625,20.909422230720537L229.7109375,21.87225944995882L232.03125,20.909422230720537L234.3515625,23.476981115341204L236.671875,22.8350966691971L238.99218749999997,20.909422230720537L241.3125,23.156028342247026L243.6328125,21.230375003814714L245.953125,21.230375003814714L248.27343750000003,20.58849055767061L250.59375,23.156028342247026L252.9140625,23.156028342247026" style="fill: none;" fill="none"></path></g><g><path stroke="rgb(255, 112, 67)" stroke-width="2px" d="M23.203125,165.95059890747072L25.523437499999996,71.96979911327364L27.84375,49.02694029808046L30.1640625,42.34234077930452L32.484375,35.884355735778826L34.8046875,33.391786408424394L37.125,30.502683949470537L39.4453125,29.086470079422014L41.765625,27.783542346954363L44.0859375,26.48061461448671L46.40625,25.68752725124361L48.7265625,25.17768688201906L51.04687499999999,24.61119289398195L53.36718750000001,24.101352524757402L55.6875,24.837786269187944L58.0078125,23.478204917907732L60.328125,23.98804528713228L62.6484375,23.081650686264055L64.96875,24.49788565635683L67.2890625,23.138304305076616L69.609375,23.081650686264055L71.92968750000001,22.74177117347719L74.25,22.628463935852068L76.5703125,23.138304305076616L78.890625,22.911710929870623L81.2109375,22.06196994781496L83.53125,22.85505731105806L85.8515625,23.704798293113726L88.171875,23.648144674301165L90.4921875,21.778722953796404L92.8125,23.194957923889177L95.1328125,22.401870560646074L97.453125,22.005337429046648L99.7734375,21.55212957859041L102.09374999999999,21.778722953796404L104.4140625,21.212250065803545L106.73437500000001,22.23193080425264L109.0546875,23.081650686264055L111.375,21.948683810234087L113.6953125,21.892030191421526L116.015625,20.9856355905533L118.3359375,20.702409696578997L120.65625,20.9856355905533L122.9765625,20.645756077766436L125.296875,21.665436816215532L127.6171875,20.645756077766436L129.9375,20.532448840141313L132.2578125,21.55212957859041L134.578125,20.815695834159868L136.8984375,21.43884344100954L139.21875,20.24920184612276L141.5390625,20.419162702560442L143.85937500000003,20.9856355905533L146.1796875,20.589102458953874L148.5,20.815695834159868L150.8203125,19.79601509571077L153.140625,22.06196994781496L155.4609375,20.30585546493532L157.78125,20.24920184612276L160.1015625,20.079262089729326L162.421875,19.569421720504778L164.7421875,19.512768101692217L167.0625,20.022608470916765L169.38281249999997,20.475795221328752L171.703125,20.87234945297243L174.0234375,19.11623497009279L176.34375,18.889620494842546L178.66406250000003,19.05958135128023L180.984375,19.62607533931734L183.3046875,19.286174726486223L185.625,20.87234945297243L187.9453125,18.832987976074236L190.265625,19.79601509571077L192.5859375,18.719680738449114L194.90625,19.229521107673662L197.2265625,18.889620494842546L199.546875,19.11623497009279L201.8671875,19.05958135128023L204.18749999999997,20.36250908374788L206.5078125,18.323147606849687L208.828125,18.946274113655107L211.1484375,18.49308736324312L213.46875000000003,18.209840369224565L215.7890625,18.266493988037126L218.109375,18.832987976074236L220.4296875,18.43643374443056L222.75,19.342828345298784L225.0703125,20.475795221328752L227.390625,18.323147606849687L229.7109375,18.323147606849687L232.03125,19.512768101692217L234.3515625,18.54974098205568L236.671875,18.832987976074236L238.99218749999997,17.98324699401857L241.3125,18.039900612831133L243.6328125,17.92659337520601L245.953125,18.153186750412004L248.27343750000003,17.81330723762514L250.59375,21.382189822196978L252.9140625,21.722090435028093" style="fill: none;" fill="none"></path></g></g></g></g></g></g><g transform="translate(51, 177)" clip-path="url(#clip_1)"><clipPath id="clip_1"><rect width="278" height="23"></rect></clipPath><g><g><line x1="0" y1="0" x2="0" y2="5" style="visibility: inherit;" fill="rgb(0, 0, 0)" stroke="rgb(204, 204, 204)" stroke-width="1px"></line><line x1="23.203125" y1="0" x2="23.203125" y2="5" style="visibility: inherit;" fill="rgb(0, 0, 0)" stroke="rgb(204, 204, 204)" stroke-width="1px"></line><line x1="46.40625" y1="0" x2="46.40625" y2="5" style="visibility: inherit;" fill="rgb(0, 0, 0)" stroke="rgb(204, 204, 204)" stroke-width="1px"></line><line x1="69.609375" y1="0" x2="69.609375" y2="5" style="visibility: inherit;" fill="rgb(0, 0, 0)" stroke="rgb(204, 204, 204)" stroke-width="1px"></line><line x1="92.8125" y1="0" x2="92.8125" y2="5" style="visibility: inherit;" fill="rgb(0, 0, 0)" stroke="rgb(204, 204, 204)" stroke-width="1px"></line><line x1="116.015625" y1="0" x2="116.015625" y2="5" style="visibility: inherit;" fill="rgb(0, 0, 0)" stroke="rgb(204, 204, 204)" stroke-width="1px"></line><line x1="139.21875" y1="0" x2="139.21875" y2="5" style="visibility: inherit;" fill="rgb(0, 0, 0)" stroke="rgb(204, 204, 204)" stroke-width="1px"></line><line x1="162.421875" y1="0" x2="162.421875" y2="5" style="visibility: inherit;" fill="rgb(0, 0, 0)" stroke="rgb(204, 204, 204)" stroke-width="1px"></line><line x1="185.625" y1="0" x2="185.625" y2="5" style="visibility: inherit;" fill="rgb(0, 0, 0)" stroke="rgb(204, 204, 204)" stroke-width="1px"></line><line x1="208.828125" y1="0" x2="208.828125" y2="5" style="visibility: inherit;" fill="rgb(0, 0, 0)" stroke="rgb(204, 204, 204)" stroke-width="1px"></line><line x1="232.03125" y1="0" x2="232.03125" y2="5" style="visibility: inherit;" fill="rgb(0, 0, 0)" stroke="rgb(204, 204, 204)" stroke-width="1px"></line><line x1="255.234375" y1="0" x2="255.234375" y2="5" style="visibility: inherit;" fill="rgb(0, 0, 0)" stroke="rgb(204, 204, 204)" stroke-width="1px"></line><line x1="278.4375" y1="0" x2="278.4375" y2="5" style="visibility: inherit;" fill="rgb(0, 0, 0)" stroke="rgb(204, 204, 204)" stroke-width="1px"></line></g><g transform="translate(0, 8)"><text x="0" y="0" dx="0em" dy="0.95em" style="text-anchor: middle; visibility: hidden; font-family: Roboto, sans-serif; font-size: 12px; font-weight: 200;" fill="rgb(33, 33, 33)" stroke="none" stroke-width="1px">-10</text><text x="23.203125" y="0" dx="0em" dy="0.95em" style="text-anchor: middle; visibility: inherit; font-family: Roboto, sans-serif; font-size: 12px; font-weight: 200;" fill="rgb(33, 33, 33)" stroke="none" stroke-width="1px">0</text><text x="46.40625" y="0" dx="0em" dy="0.95em" style="text-anchor: middle; visibility: inherit; font-family: Roboto, sans-serif; font-size: 12px; font-weight: 200;" fill="rgb(33, 33, 33)" stroke="none" stroke-width="1px">10</text><text x="69.609375" y="0" dx="0em" dy="0.95em" style="text-anchor: middle; visibility: inherit; font-family: Roboto, sans-serif; font-size: 12px; font-weight: 200;" fill="rgb(33, 33, 33)" stroke="none" stroke-width="1px">20</text><text x="92.8125" y="0" dx="0em" dy="0.95em" style="text-anchor: middle; visibility: inherit; font-family: Roboto, sans-serif; font-size: 12px; font-weight: 200;" fill="rgb(33, 33, 33)" stroke="none" stroke-width="1px">30</text><text x="116.015625" y="0" dx="0em" dy="0.95em" style="text-anchor: middle; visibility: inherit; font-family: Roboto, sans-serif; font-size: 12px; font-weight: 200;" fill="rgb(33, 33, 33)" stroke="none" stroke-width="1px">40</text><text x="139.21875" y="0" dx="0em" dy="0.95em" style="text-anchor: middle; visibility: inherit; font-family: Roboto, sans-serif; font-size: 12px; font-weight: 200;" fill="rgb(33, 33, 33)" stroke="none" stroke-width="1px">50</text><text x="162.421875" y="0" dx="0em" dy="0.95em" style="text-anchor: middle; visibility: inherit; font-family: Roboto, sans-serif; font-size: 12px; font-weight: 200;" fill="rgb(33, 33, 33)" stroke="none" stroke-width="1px">60</text><text x="185.625" y="0" dx="0em" dy="0.95em" style="text-anchor: middle; visibility: inherit; font-family: Roboto, sans-serif; font-size: 12px; font-weight: 200;" fill="rgb(33, 33, 33)" stroke="none" stroke-width="1px">70</text><text x="208.828125" y="0" dx="0em" dy="0.95em" style="text-anchor: middle; visibility: inherit; font-family: Roboto, sans-serif; font-size: 12px; font-weight: 200;" fill="rgb(33, 33, 33)" stroke="none" stroke-width="1px">80</text><text x="232.03125" y="0" dx="0em" dy="0.95em" style="text-anchor: middle; visibility: inherit; font-family: Roboto, sans-serif; font-size: 12px; font-weight: 200;" fill="rgb(33, 33, 33)" stroke="none" stroke-width="1px">90</text><text x="255.234375" y="0" dx="0em" dy="0.95em" style="text-anchor: middle; visibility: inherit; font-family: Roboto, sans-serif; font-size: 12px; font-weight: 200;" fill="rgb(33, 33, 33)" stroke="none" stroke-width="1px">100</text><text x="278.4375" y="0" dx="0em" dy="0.95em" style="text-anchor: middle; visibility: hidden; font-family: Roboto, sans-serif; font-size: 12px; font-weight: 200;" fill="rgb(33, 33, 33)" stroke="none" stroke-width="1px">110</text></g><line x1="0" y1="0" x2="278.4375" y2="0" fill="rgb(0, 0, 0)" stroke="rgb(204, 204, 204)" stroke-width="1px"></line></g></g></g></g></svg>