<svg viewBox="0 0 330 200" xmlns="http://www.w3.org/2000/svg"><g><g><g><g><g><line x1="51.5625" y1="177" x2="46.5625" y2="177" style="visibility: inherit;" fill="rgb(0, 0, 0)" stroke="rgb(204, 204, 204)" stroke-width="1px"></line><line x1="51.5625" y1="164.35714285714286" x2="46.5625" y2="164.35714285714286" style="visibility: inherit;" fill="rgb(0, 0, 0)" stroke="rgb(204, 204, 204)" stroke-width="1px"></line><line x1="51.5625" y1="151.71428571428572" x2="46.5625" y2="151.71428571428572" style="visibility: inherit;" fill="rgb(0, 0, 0)" stroke="rgb(204, 204, 204)" stroke-width="1px"></line><line x1="51.5625" y1="139.07142857142856" x2="46.5625" y2="139.07142857142856" style="visibility: inherit;" fill="rgb(0, 0, 0)" stroke="rgb(204, 204, 204)" stroke-width="1px"></line><line x1="51.5625" y1="126.42857142857143" x2="46.5625" y2="126.42857142857143" style="visibility: inherit;" fill="rgb(0, 0, 0)" stroke="rgb(204, 204, 204)" stroke-width="1px"></line><line x1="51.5625" y1="113.78571428571429" x2="46.5625" y2="113.78571428571429" style="visibility: inherit;" fill="rgb(0, 0, 0)" stroke="rgb(204, 204, 204)" stroke-width="1px"></line><line x1="51.5625" y1="101.14285714285715" x2="46.5625" y2="101.14285714285715" style="visibility: inherit;" fill="rgb(0, 0, 0)" stroke="rgb(204, 204, 204)" stroke-width="1px"></line><line x1="51.5625" y1="88.5" x2="46.5625" y2="88.5" style="visibility: inherit;" fill="rgb(0, 0, 0)" stroke="rgb(204, 204, 204)" stroke-width="1px"></line><line x1="51.5625" y1="75.85714285714288" x2="46.5625" y2="75.85714285714288" style="visibility: inherit;" fill="rgb(0, 0, 0)" stroke="rgb(204, 204, 204)" stroke-width="1px"></line><line x1="51.5625" y1="63.21428571428572" x2="46.5625" y2="63.21428571428572" style="visibility: inherit;" fill="rgb(0, 0, 0)" stroke="rgb(204, 204, 204)" stroke-width="1px"></line><line x1="51.5625" y1="50.57142857142859" x2="46.5625" y2="50.57142857142859" style="visibility: inherit;" fill="rgb(0, 0, 0)" stroke="rgb(204, 204, 204)" stroke-width="1px"></line><line x1="51.5625" y1="37.92857142857143" x2="46.5625" y2="37.92857142857143" style="visibility: inherit;" fill="rgb(0, 0, 0)" stroke="rgb(204, 204, 204)" stroke-width="1px"></line><line x1="51.5625" y1="25.285714285714274" x2="46.5625" y2="25.285714285714274" style="visibility: inherit;" fill="rgb(0, 0, 0)" stroke="rgb(204, 204, 204)" stroke-width="1px"></line><line x1="51.5625" y1="12.642857142857157" x2="46.5625" y2="12.642857142857157" style="visibility: inherit;" fill="rgb(0, 0, 0)" stroke="rgb(204, 204, 204)" stroke-width="1px"></line><line x1="51.5625" y1="0" x2="46.5625" y2="0" style="visibility: inherit;" fill="rgb(0, 0, 0)" stroke="rgb(204, 204, 204)" stroke-width="1px"></line></g><g transform="translate(41.5625, 0)"><text x="0" y="177" dx="0em" dy="0.3em" style="text-anchor: end; visibility: hidden; font-family: Roboto, sans-serif; font-size: 12px; font-weight: 200;" fill="rgb(33, 33, 33)" stroke="none" stroke-width="1px">-0.1</text><text x="0" y="164.35714285714286" dx="0em" dy="0.3em" style="text-anchor: end; visibility: inherit; font-family: Roboto, sans-serif; font-size: 12px; font-weight: 200;" fill="rgb(33, 33, 33)" stroke="none" stroke-width="1px">0</text><text x="0" y="151.71428571428572" dx="0em" dy="0.3em" style="text-anchor: end; visibility: hidden; font-family: Roboto, sans-serif; font-size: 12px; font-weight: 200;" fill="rgb(33, 33, 33)" stroke="none" stroke-width="1px">0.1</text><text x="0" y="139.07142857142856" dx="0em" dy="0.3em" style="text-anchor: end; visibility: inherit; font-family: Roboto, sans-serif; font-size: 12px; font-weight: 200;" fill="rgb(33, 33, 33)" stroke="none" stroke-width="1px">0.2</text><text x="0" y="126.42857142857143" dx="0em" dy="0.3em" style="text-anchor: end; visibility: hidden; font-family: Roboto, sans-serif; font-size: 12px; font-weight: 200;" fill="rgb(33, 33, 33)" stroke="none" stroke-width="1px">0.3</text><text x="0" y="113.78571428571429" dx="0em" dy="0.3em" style="text-anchor: end; visibility: inherit; font-family: Roboto, sans-serif; font-size: 12px; font-weight: 200;" fill="rgb(33, 33, 33)" stroke="none" stroke-width="1px">0.4</text><text x="0" y="101.14285714285715" dx="0em" dy="0.3em" style="text-anchor: end; visibility: hidden; font-family: Roboto, sans-serif; font-size: 12px; font-weight: 200;" fill="rgb(33, 33, 33)" stroke="none" stroke-width="1px">0.5</text><text x="0" y="88.5" dx="0em" dy="0.3em" style="text-anchor: end; visibility: inherit; font-family: Roboto, sans-serif; font-size: 12px; font-weight: 200;" fill="rgb(33, 33, 33)" stroke="none" stroke-width="1px">0.6</text><text x="0" y="75.85714285714288" dx="0em" dy="0.3em" style="text-anchor: end; visibility: hidden; font-family: Roboto, sans-serif; font-size: 12px; font-weight: 200;" fill="rgb(33, 33, 33)" stroke="none" stroke-width="1px">0.7</text><text x="0" y="63.21428571428572" dx="0em" dy="0.3em" style="text-anchor: end; visibility: inherit; font-family: Roboto, sans-serif; font-size: 12px; font-weight: 200;" fill="rgb(33, 33, 33)" stroke="none" stroke-width="1px">0.8</text><text x="0" y="50.57142857142859" dx="0em" dy="0.3em" style="text-anchor: end; visibility: hidden; font-family: Roboto, sans-serif; font-size: 12px; font-weight: 200;" fill="rgb(33, 33, 33)" stroke="none" stroke-width="1px">0.9</text><text x="0" y="37.92857142857143" dx="0em" dy="0.3em" style="text-anchor: end; visibility: inherit; font-family: Roboto, sans-serif; font-size: 12px; font-weight: 200;" fill="rgb(33, 33, 33)" stroke="none" stroke-width="1px">1</text><text x="0" y="25.285714285714274" dx="0em" dy="0.3em" style="text-anchor: end; visibility: hidden; font-family: Roboto, sans-serif; font-size: 12px; font-weight: 200;" fill="rgb(33, 33, 33)" stroke="none" stroke-width="1px">1.1</text><text x="0" y="12.642857142857157" dx="0em" dy="0.3em" style="text-anchor: end; visibility: inherit; font-family: Roboto, sans-serif; font-size: 12px; font-weight: 200;" fill="rgb(33, 33, 33)" stroke="none" stroke-width="1px">1.2</text><text x="0" y="0" dx="0em" dy="0.3em" style="text-anchor: end; visibility: hidden; font-family: Roboto, sans-serif; font-size: 12px; font-weight: 200;" fill="rgb(33, 33, 33)" stroke="none" stroke-width="1px">1.3</text></g><line x1="51.5625" y1="0" x2="51.5625" y2="177" fill="rgb(0, 0, 0)" stroke="rgb(204, 204, 204)" stroke-width="1px"></line></g></g><g transform="translate(51, 0)" clip-path="url(#clip_0)"><clipPath id="clip_0"><rect width="278" height="177"></rect></clipPath><g><g><g><line x1="0" y1="0" x2="0" y2="177" fill="rgb(0, 0, 0)" stroke="rgb(66, 66, 66)" stroke-width="1px" opacity="0.25"></line><line x1="23.203125" y1="0" x2="23.203125" y2="177" fill="rgb(0, 0, 0)" stroke="rgb(66, 66, 66)" stroke-width="1px" opacity="0.25"></line><line x1="46.40625" y1="0" x2="46.40625" y2="177" fill="rgb(0, 0, 0)" stroke="rgb(66, 66, 66)" stroke-width="1px" opacity="0.25"></line><line x1="69.609375" y1="0" x2="69.609375" y2="177" fill="rgb(0, 0, 0)" stroke="rgb(66, 66, 66)" stroke-width="1px" opacity="0.25"></line><line x1="92.8125" y1="0" x2="92.8125" y2="177" fill="rgb(0, 0, 0)" stroke="rgb(66, 66, 66)" stroke-width="1px" opacity="0.25"></line><line x1="116.015625" y1="0" x2="116.015625" y2="177" fill="rgb(0, 0, 0)" stroke="rgb(66, 66, 66)" stroke-width="1px" opacity="0.25"></line><line x1="139.21875" y1="0" x2="139.21875" y2="177" fill="rgb(0, 0, 0)" stroke="rgb(66, 66, 66)" stroke-width="1px" opacity="0.25"></line><line x1="162.421875" y1="0" x2="162.421875" y2="177" fill="rgb(0, 0, 0)" stroke="rgb(66, 66, 66)" stroke-width="1px" opacity="0.25"></line><line x1="185.625" y1="0" x2="185.625" y2="177" fill="rgb(0, 0, 0)" stroke="rgb(66, 66, 66)" stroke-width="1px" opacity="0.25"></line><line x1="208.828125" y1="0" x2="208.828125" y2="177" fill="rgb(0, 0, 0)" stroke="rgb(66, 66, 66)" stroke-width="1px" opacity="0.25"></line><line x1="232.03125" y1="0" x2="232.03125" y2="177" fill="rgb(0, 0, 0)" stroke="rgb(66, 66, 66)" stroke-width="1px" opacity="0.25"></line><line x1="255.234375" y1="0" x2="255.234375" y2="177" fill="rgb(0, 0, 0)" stroke="rgb(66, 66, 66)" stroke-width="1px" opacity="0.25"></line><line x1="278.4375" y1="0" x2="278.4375" y2="177" fill="rgb(0, 0, 0)" stroke="rgb(66, 66, 66)" stroke-width="1px" opacity="0.25"></line></g><g><line x1="0" y1="177" x2="278.4375" y2="177" fill="rgb(0, 0, 0)" stroke="rgb(66, 66, 66)" stroke-width="1px" opacity="0.25"></line><line x1="0" y1="164.35714285714286" x2="278.4375" y2="164.35714285714286" fill="rgb(0, 0, 0)" stroke="rgb(66, 66, 66)" stroke-width="1px" opacity="0.25"></line><line x1="0" y1="151.71428571428572" x2="278.4375" y2="151.71428571428572" fill="rgb(0, 0, 0)" stroke="rgb(66, 66, 66)" stroke-width="1px" opacity="0.25"></line><line x1="0" y1="139.07142857142856" x2="278.4375" y2="139.07142857142856" fill="rgb(0, 0, 0)" stroke="rgb(66, 66, 66)" stroke-width="1px" opacity="0.25"></line><line x1="0" y1="126.42857142857143" x2="278.4375" y2="126.42857142857143" fill="rgb(0, 0, 0)" stroke="rgb(66, 66, 66)" stroke-width="1px" opacity="0.25"></line><line x1="0" y1="113.78571428571429" x2="278.4375" y2="113.78571428571429" fill="rgb(0, 0, 0)" stroke="rgb(66, 66, 66)" stroke-width="1px" opacity="0.25"></line><line x1="0" y1="101.14285714285715" x2="278.4375" y2="101.14285714285715" fill="rgb(0, 0, 0)" stroke="rgb(66, 66, 66)" stroke-width="1px" opacity="0.25"></line><line x1="0" y1="88.5" x2="278.4375" y2="88.5" fill="rgb(0, 0, 0)" stroke="rgb(66, 66, 66)" stroke-width="1px" opacity="0.25"></line><line x1="0" y1="75.85714285714288" x2="278.4375" y2="75.85714285714288" fill="rgb(0, 0, 0)" stroke="rgb(66, 66, 66)" stroke-width="1px" opacity="0.25"></line><line x1="0" y1="63.21428571428572" x2="278.4375" y2="63.21428571428572" fill="rgb(0, 0, 0)" stroke="rgb(66, 66, 66)" stroke-width="1px" opacity="0.25"></line><line x1="0" y1="50.57142857142859" x2="278.4375" y2="50.57142857142859" fill="rgb(0, 0, 0)" stroke="rgb(66, 66, 66)" stroke-width="1px" opacity="0.25"></line><line x1="0" y1="37.92857142857143" x2="278.4375" y2="37.92857142857143" fill="rgb(0, 0, 0)" stroke="rgb(66, 66, 66)" stroke-width="1px" opacity="0.25"></line><line x1="0" y1="25.285714285714274" x2="278.4375" y2="25.285714285714274" fill="rgb(0, 0, 0)" stroke="rgb(66, 66, 66)" stroke-width="1px" opacity="0.25"></line><line x1="0" y1="12.642857142857157" x2="278.4375" y2="12.642857142857157" fill="rgb(0, 0, 0)" stroke="rgb(66, 66, 66)" stroke-width="1px" opacity="0.25"></line><line x1="0" y1="0" x2="278.4375" y2="0" fill="rgb(0, 0, 0)" stroke="rgb(66, 66, 66)" stroke-width="1px" opacity="0.25"></line></g></g></g><g><g><line x1="0" y1="164.35714285714286" x2="278.4375" y2="164.35714285714286" fill="rgb(0, 0, 0)" stroke="rgb(153, 153, 153)" stroke-width="1.5px"></line></g></g><g><g><line x1="23.203125" y1="0" x2="23.203125" y2="177" fill="rgb(0, 0, 0)" stroke="rgb(153, 153, 153)" stroke-width="1.5px"></line></g></g><g><g><g><g><g><path stroke="rgb(0, 119, 187)" stroke-width="2px" d="M23.203125,51.28196050439563L25.523437499999996,73.352681659431L27.84375,89.04886357713201L30.1640625,100.69931624673397L32.484375,109.96450544781703L34.8046875,117.36580171096803L37.125,123.56031929255485L39.4453125,128.4940138906786L41.765625,132.6057798564936L44.0859375,135.72365142893335L46.40625,138.75707096088712L48.7265625,141.2954657384483L51.04687499999999,143.49899676949605L53.36718750000001,145.33771000538013L55.6875,146.72763289139002L58.0078125,148.1905237161011L60.328125,149.40804674069466L62.6484375,150.5075744511387L64.96875,151.4321611977922L67.2890625,151.9617459200122L69.609375,152.71912336953952L71.92968750000001,153.39943880132492L74.25,153.73507608333824L76.5703125,154.22954938979353L78.890625,154.5456743189157L81.2109375,154.9884755169377L83.53125,155.00280286643078L85.8515625,155.22314167051073L88.171875,155.61285817330554L90.4921875,155.08108033764853L92.8125,155.5754861570982L95.1328125,156.0598318275009L97.453125,156.39969508081L99.7734375,156.76356930448878L102.09374999999999,156.69684254758442L104.4140625,156.93552417821058L106.73437500000001,156.54399924658682L109.0546875,156.86811394105536L111.375,157.20617885620806L113.6953125,157.3362955613413L116.015625,157.60964300830292L118.3359375,157.73785524689083L120.65625,157.96995577001258L122.9765625,158.12084957569175L125.296875,158.08921748036624L127.6171875,158.09639183647647L129.9375,158.25373620018215L132.2578125,157.61552327902655L134.578125,157.70069783491323L136.8984375,157.97744307893606L139.21875,158.1947296837595L141.5390625,158.3523020582064L143.85937500000003,158.46844506367512L146.1796875,158.64354871843614L148.5,158.71851749111764L150.8203125,158.9060205414046L153.140625,158.93098713322442L155.4609375,158.97715610535138L157.78125,158.9165925437192L160.1015625,158.72579264954268L162.421875,158.8847372326767L164.7421875,158.59039021646925L167.0625,158.58540486142888L169.38281249999997,158.76487378575789L171.703125,158.98559468121508L174.0234375,159.14748786854298L176.34375,159.30447602388017L178.66406250000003,159.46771963918704L180.984375,159.51672121276437L183.3046875,159.51158620353803L185.625,159.4552674496684L187.9453125,159.0747808662452L190.265625,158.88810236556674L192.5859375,159.01514836958805L194.90625,159.20936367880785L197.2265625,159.25422574079326L199.546875,159.24002847851258L201.8671875,159.36846866046156L204.18749999999997,159.544738746124L206.5078125,159.64889839204383L208.828125,159.80710437639448L211.1484375,159.88304337131393L213.46875000000003,159.98321710187608L215.7890625,160.09678437685557L218.109375,160.17870092581288L220.4296875,160.2030976932028L222.75,159.96035668459388L225.0703125,160.01645912089117L227.390625,160.1640245206144L229.7109375,160.06284996403173L232.03125,160.19950977506713L234.3515625,159.9746104991783L236.671875,159.76907928369482L238.99218749999997,159.89239982288373L241.3125,159.77254516038022L243.6328125,159.88585410841168L245.953125,159.9447418215485L248.27343750000003,159.96413080118134L250.59375,159.94608011068092L252.9140625,159.8459482924248" style="fill: none;" fill="none"></path></g><g><path stroke="rgb(255, 112, 67)" stroke-width="2px" d="M23.203125,11.588707974978862L25.523437499999996,45.69865719001625L27.84375,69.135320882336L30.1640625,85.77019656119323L32.484375,98.47941368275723L34.8046875,108.3079692386892L37.125,116.2251703014419L39.4453125,122.65787944442359L41.765625,127.89901683303967L44.0859375,132.32737090483025L46.40625,136.0422503176818L48.7265625,139.1778284630652L51.04687499999999,141.85753708800678L53.36718750000001,144.12945454903237L55.6875,146.01910377144537L58.0078125,147.75866073821342L60.328125,149.2079621319799L62.6484375,150.51850574356223L64.96875,151.48546933666685L67.2890625,152.4928557571172L69.609375,153.36788574050206L71.92968750000001,154.15203095597894L74.25,154.85239116741784L76.5703125,155.37174751311636L78.890625,155.88630186845418L81.2109375,156.38596952142737L83.53125,156.74727214731135L85.8515625,157.01063656607394L88.171875,157.22473599013304L90.4921875,157.57847819352332L92.8125,157.7896980921882L95.1328125,158.05106556008218L97.453125,158.2852432798565L99.7734375,158.55622415920746L102.09374999999999,158.81048374484556L104.4140625,159.06057043615218L106.73437500000001,159.16145161664576L109.0546875,159.10447554703717L111.375,159.2208915062937L113.6953125,159.37041895081398L116.015625,159.57001265793878L118.3359375,159.7614819424382L120.65625,159.8994388898841L122.9765625,160.06940192872798L125.296875,160.10738820519134L127.6171875,160.27219438194362L129.9375,160.41837377662478L132.2578125,160.48218293050851L134.578125,160.56064238355492L136.8984375,160.61686834708505L139.21875,160.74160902546203L141.5390625,160.85555203158907L143.85937500000003,160.8774035706278L146.1796875,160.96821725821349L148.5,160.99987374474213L150.8203125,161.14588772602227L153.140625,160.9851337753995L155.4609375,161.09845725591057L157.78125,161.16576955188464L160.1015625,161.26034745385536L162.421875,161.38208560069387L164.7421875,161.5338412746873L167.0625,161.6275796210389L169.38281249999997,161.6507176888373L171.703125,161.5926726872394L174.0234375,161.7458298451537L176.34375,161.8592906346594L178.66406250000003,161.98953972946555L180.984375,162.0326045615905L183.3046875,162.12508354416815L185.625,162.0487521537698L187.9453125,162.16267523216956L190.265625,162.20371720395258L192.5859375,162.33112267571505L194.90625,162.42109311618935L197.2265625,162.51147840802548L199.546875,162.5794414878113L201.8671875,162.6321950771059L204.18749999999997,162.48419986551582L206.5078125,162.6397868990442L208.828125,162.70598515567733L211.1484375,162.8021919573915L213.46875000000003,162.92337812063025L215.7890625,163.0052613292133L218.109375,163.02283695515865L220.4296875,163.07840676857785L222.75,163.04157839844956L225.0703125,162.85744036977084L227.390625,162.9468637623849L229.7109375,163.0355688215738L232.03125,162.9953102792942L234.3515625,163.06031186127086L236.671875,163.06272724821116L238.99218749999997,163.17580734064938L241.3125,163.26740568750307L243.6328125,163.3657124439942L245.953125,163.44142919391342L248.27343750000003,163.52289034264962L250.59375,163.17586780656646L252.9140625,162.8707983822532" style="fill: none;" fill="none"></path></g></g></g></g><g opacity="0.2"><g><g><g><path stroke="rgb(0, 119, 187)" stroke-width="2px" d="M23.203125,51.28196050439563L25.523437499999996,92.15693608352117L27.84375,113.81593180980002L30.1640625,126.28807000177247L32.484375,135.196495496801L34.8046875,140.84464388660024L37.125,145.58038114862782L39.4453125,147.6400092180286L41.765625,149.70383092122418L44.0859375,149.42635780360018L46.40625,152.70002401726586L48.7265625,153.39897146075964L51.04687499999999,154.32821364168612L53.36718750000001,154.6032432988286L55.6875,153.87926875374148L58.0078125,155.84997991791795L60.328125,155.8766639381647L62.6484375,156.4215141790254L64.96875,156.45690432244112L67.2890625,154.86506941488813L69.609375,156.90203518899423L71.92968750000001,157.1802929645138L74.25,155.6102787054011L76.5703125,157.00459129469735L78.890625,156.32657151562827L81.2109375,157.49108248682958L83.53125,155.08400027134587L85.8515625,156.47478519699405L88.171875,157.8310545948999L90.4921875,152.04918561662947L92.8125,158.3983551886465L95.1328125,158.82864019594024L97.453125,158.34457597987992L99.7734375,158.84769664438707L102.09374999999999,156.31437022664716L104.4140625,158.30450520611237L106.73437500000001,154.29714476849352L109.0546875,158.7289844043553L111.375,159.1479116534548L113.6953125,158.08389482381088L116.015625,159.18064074218273L118.3359375,158.4749040768615L120.65625,159.304501298815L122.9765625,158.98862186180693L125.296875,157.90727756278855L127.6171875,158.13766225799918L129.9375,159.15895762081658L132.2578125,153.9434628124748L134.578125,158.19080234265755L136.8984375,159.5699761211872L139.21875,159.44517972107445L141.5390625,159.2591508041535L143.85937500000003,159.136890648199L146.1796875,159.65137048384975L148.5,159.1500188319811L150.8203125,159.98526879346798L153.140625,159.07469544187188L155.4609375,159.2429108348276L157.78125,158.56797505329763L160.1015625,157.62749050504397L162.421875,159.7996811877404L164.7421875,156.8960028370576L167.0625,158.55670678189824L169.38281249999997,159.79798988731844L171.703125,160.25618629689728L174.0234375,160.07943951551405L176.34375,160.20819547080566L178.66406250000003,160.40745289091555L180.984375,159.79880610108376L183.3046875,159.48202567334687L185.625,159.1310584640929L187.9453125,156.8844373753028L190.265625,157.8134501874447L192.5859375,159.74651519900988L194.90625,160.32740601098965L197.2265625,159.51248415240218L199.546875,159.1582987154169L201.8671875,160.10786428941148L204.18749999999997,160.55947894523186L206.5078125,160.24851822054814L208.828125,160.71785526509797L211.1484375,160.3202046789229L213.46875000000003,160.55989176194583L215.7890625,160.75056245311032L218.109375,160.65027389568942L220.4296875,160.34354377697622L222.75,158.5629571990243L225.0703125,160.3394269134317L227.390625,161.0135219900736L229.7109375,159.48041302710772L232.03125,160.98622663372328L234.3515625,158.6799206786922L236.671875,158.585886541754L238.99218749999997,160.60232592906272L241.3125,159.08257122178165L243.6328125,160.5381459998233L245.953125,160.28374399085132L248.27343750000003,160.0757484207196L250.59375,159.8421666920185L252.9140625,159.2695138459759" style="fill: none;" fill="none"></path></g><g><path stroke="rgb(255, 112, 67)" stroke-width="2px" d="M23.203125,11.588707974978862L25.523437499999996,74.76033392122814L27.84375,106.1161262691021L30.1640625,122.30660845552173L32.484375,133.090562249933L34.8046875,139.4867109762771L37.125,144.3689692062991L39.4453125,147.62104178539346L41.765625,149.69335908229863L44.0859375,151.7895052997129L46.40625,153.1174978124244L48.7265625,154.1288078618901L51.04687499999999,155.02692088378328L53.36718750000001,155.5779645528112L55.6875,155.74200515129735L58.0078125,156.86669544077347L60.328125,156.90800207427571L62.6484375,157.5674194326358L64.96875,156.74051293730736L67.2890625,158.01561451543657L69.609375,158.2005794814655L71.92968750000001,158.5099193177053L74.25,158.765297674707L76.5703125,158.28643593830722L78.890625,158.78505588801843L81.2109375,159.20997215860655L83.53125,158.79488295103823L85.8515625,158.50668884441257L88.171875,158.44335150399377L90.4921875,159.595315013613L92.8125,158.9956833118839L95.1328125,159.54519769868682L97.453125,159.62533453639065L99.7734375,160.10829523897598L102.09374999999999,160.26787892409732L104.4140625,160.4949662664107L106.73437500000001,159.74038111471702L109.0546875,158.77735342990076L111.375,159.8895461820066L113.6953125,160.22954466513227L116.015625,160.71712877361904L118.3359375,160.8621741514653L120.65625,160.69267203259682L122.9765625,161.04683910124004L125.296875,160.32587578679835L127.6171875,161.2202404894467L129.9375,161.25936176122298L132.2578125,160.84931913789896L134.578125,161.01210739224086L136.8984375,160.94042116935765L139.21875,161.45947189629078L141.5390625,161.51130829964367L143.85937500000003,161.00316719045597L146.1796875,161.49090201354454L148.5,161.18208049423993L150.8203125,161.98632916861345L153.140625,160.05983013287187L155.4609375,161.75076224601696L157.78125,161.5532342759626L160.1015625,161.8047665847199L162.421875,162.0828555127872L164.7421875,162.40741187201013L167.0625,162.16718221642077L169.38281249999997,161.78391239366363L171.703125,161.25853353738785L174.0234375,162.62749180956078L176.34375,162.51244005041997L178.66406250000003,162.73933570259916L180.984375,162.28051370967714L183.3046875,162.65745410788804L185.625,161.6093368445124L187.9453125,162.81849513256122L190.265625,162.43998353462666L192.5859375,163.06455885618925L194.90625,162.9390273691554L197.2265625,163.03180139072774L199.546875,162.97068638421064L201.8671875,162.93588332126717L204.18749999999997,161.63223062801575L206.5078125,163.53546074219048L208.828125,163.08707137884838L211.1484375,163.356029827946L213.46875000000003,163.62101600532023L215.7890625,163.47664224941818L218.109375,163.12401541335774L220.4296875,163.3983082762653L222.75,162.82956665075784L225.0703125,161.79740346994785L227.390625,163.46165209270214L229.7109375,163.5462219413769L232.03125,162.76355177124162L234.3515625,163.43450998248798L236.671875,163.07663203775883L238.99218749999997,163.82678170582014L241.3125,163.7947149371196L243.6328125,163.93164038917584L245.953125,163.877312014079L248.27343750000003,163.9918422771485L250.59375,161.17814378174288L252.9140625,161.11458814064306" style="fill: none;" fill="none"></path></g></g></g></g></g></g><g transform="translate(51, 177)" clip-path="url(#clip_1)"><clipPath id="clip_1"><rect width="278" height="23"></rect></clipPath><g><g><line x1="0" y1="0" x2="0" y2="5" style="visibility: inherit;" fill="rgb(0, 0, 0)" stroke="rgb(204, 204, 204)" stroke-width="1px"></line><line x1="23.203125" y1="0" x2="23.203125" y2="5" style="visibility: inherit;" fill="rgb(0, 0, 0)" stroke="rgb(204, 204, 204)" stroke-width="1px"></line><line x1="46.40625" y1="0" x2="46.40625" y2="5" style="visibility: inherit;" fill="rgb(0, 0, 0)" stroke="rgb(204, 204, 204)" stroke-width="1px"></line><line x1="69.609375" y1="0" x2="69.609375" y2="5" style="visibility: inherit;" fill="rgb(0, 0, 0)" stroke="rgb(204, 204, 204)" stroke-width="1px"></line><line x1="92.8125" y1="0" x2="92.8125" y2="5" style="visibility: inherit;" fill="rgb(0, 0, 0)" stroke="rgb(204, 204, 204)" stroke-width="1px"></line><line x1="116.015625" y1="0" x2="116.015625" y2="5" style="visibility: inherit;" fill="rgb(0, 0, 0)" stroke="rgb(204, 204, 204)" stroke-width="1px"></line><line x1="139.21875" y1="0" x2="139.21875" y2="5" style="visibility: inherit;" fill="rgb(0, 0, 0)" stroke="rgb(204, 204, 204)" stroke-width="1px"></line><line x1="162.421875" y1="0" x2="162.421875" y2="5" style="visibility: inherit;" fill="rgb(0, 0, 0)" stroke="rgb(204, 204, 204)" stroke-width="1px"></line><line x1="185.625" y1="0" x2="185.625" y2="5" style="visibility: inherit;" fill="rgb(0, 0, 0)" stroke="rgb(204, 204, 204)" stroke-width="1px"></line><line x1="208.828125" y1="0" x2="208.828125" y2="5" style="visibility: inherit;" fill="rgb(0, 0, 0)" stroke="rgb(204, 204, 204)" stroke-width="1px"></line><line x1="232.03125" y1="0" x2="232.03125" y2="5" style="visibility: inherit;" fill="rgb(0, 0, 0)" stroke="rgb(204, 204, 204)" stroke-width="1px"></line><line x1="255.234375" y1="0" x2="255.234375" y2="5" style="visibility: inherit;" fill="rgb(0, 0, 0)" stroke="rgb(204, 204, 204)" stroke-width="1px"></line><line x1="278.4375" y1="0" x2="278.4375" y2="5" style="visibility: inherit;" fill="rgb(0, 0, 0)" stroke="rgb(204, 204, 204)" stroke-width="1px"></line></g><g transform="translate(0, 8)"><text x="0" y="0" dx="0em" dy="0.95em" style="text-anchor: middle; visibility: hidden; font-family: Roboto, sans-serif; font-size: 12px; font-weight: 200;" fill="rgb(33, 33, 33)" stroke="none" stroke-width="1px">-10</text><text x="23.203125" y="0" dx="0em" dy="0.95em" style="text-anchor: middle; visibility: inherit; font-family: Roboto, sans-serif; font-size: 12px; font-weight: 200;" fill="rgb(33, 33, 33)" stroke="none" stroke-width="1px">0</text><text x="46.40625" y="0" dx="0em" dy="0.95em" style="text-anchor: middle; visibility: inherit; font-family: Roboto, sans-serif; font-size: 12px; font-weight: 200;" fill="rgb(33, 33, 33)" stroke="none" stroke-width="1px">10</text><text x="69.609375" y="0" dx="0em" dy="0.95em" style="text-anchor: middle; visibility: inherit; font-family: Roboto, sans-serif; font-size: 12px; font-weight: 200;" fill="rgb(33, 33, 33)" stroke="none" stroke-width="1px">20</text><text x="92.8125" y="0" dx="0em" dy="0.95em" style="text-anchor: middle; visibility: inherit; font-family: Roboto, sans-serif; font-size: 12px; font-weight: 200;" fill="rgb(33, 33, 33)" stroke="none" stroke-width="1px">30</text><text x="116.015625" y="0" dx="0em" dy="0.95em" style="text-anchor: middle; visibility: inherit; font-family: Roboto, sans-serif; font-size: 12px; font-weight: 200;" fill="rgb(33, 33, 33)" stroke="none" stroke-width="1px">40</text><text x="139.21875" y="0" dx="0em" dy="0.95em" style="text-anchor: middle; visibility: inherit; font-family: Roboto, sans-serif; font-size: 12px; font-weight: 200;" fill="rgb(33, 33, 33)" stroke="none" stroke-width="1px">50</text><text x="162.421875" y="0" dx="0em" dy="0.95em" style="text-anchor: middle; visibility: inherit; font-family: Roboto, sans-serif; font-size: 12px; font-weight: 200;" fill="rgb(33, 33, 33)" stroke="none" stroke-width="1px">60</text><text x="185.625" y="0" dx="0em" dy="0.95em" style="text-anchor: middle; visibility: inherit; font-family: Roboto, sans-serif; font-size: 12px; font-weight: 200;" fill="rgb(33, 33, 33)" stroke="none" stroke-width="1px">70</text><text x="208.828125" y="0" dx="0em" dy="0.95em" style="text-anchor: middle; visibility: inherit; font-family: Roboto, sans-serif; font-size: 12px; font-weight: 200;" fill="rgb(33, 33, 33)" stroke="none" stroke-width="1px">80</text><text x="232.03125" y="0" dx="0em" dy="0.95em" style="text-anchor: middle; visibility: inherit; font-family: Roboto, sans-serif; font-size: 12px; font-weight: 200;" fill="rgb(33, 33, 33)" stroke="none" stroke-width="1px">90</text><text x="255.234375" y="0" dx="0em" dy="0.95em" style="text-anchor: middle; visibility: inherit; font-family: Roboto, sans-serif; font-size: 12px; font-weight: 200;" fill="rgb(33, 33, 33)" stroke="none" stroke-width="1px">100</text><text x="278.4375" y="0" dx="0em" dy="0.95em" style="text-anchor: middle; visibility: hidden; font-family: Roboto, sans-serif; font-size: 12px; font-weight: 200;" fill="rgb(33, 33, 33)" stroke="none" stroke-width="1px">110</text></g><line x1="0" y1="0" x2="278.4375" y2="0" fill="rgb(0, 0, 0)" stroke="rgb(204, 204, 204)" stroke-width="1px"></line></g></g></g></g></svg>